<svg xmlns="http://www.w3.org/2000/svg" width="940pt" height="348pt" viewBox="0 0 940 348" enable-background="new"><path fill="#fefefe" d="M0 0h111.58c-.84 1.24-2 1.96-3.55 1.62C72.02 1.56 36.01 1.58 0 1.6V0z"/><path fill="#030303" d="M465.56 1.59c-.02 109.13-.02 218.27-.01 327.41-155.18-.04-310.37.09-465.55-.07V1.6zm15.14 0l459.3.03v327.35l-459.29.03z"/><path fill="#b8b8b8" d="M2.3 3.86l108.327-.04-3.104 61.614c-2.35.97-4.983 2.526-7.323 3.506.24-10 .96-20.19-1.36-30-5.516-15.835-9.76-24.49-27.89-26.22-22.008-.656-34.263 9.697-38.78 26.23-5.42 20.19-2.235 41-1.65 60.06-.04 20.65 1.73 41.27 1.28 61.92-.18 2.87-.52 5.72-.83 8.58 1.87.39 3.72.87 5.55 1.42-.18 5.46-.39 10.93.02 16.38.88-.86 1.46-1.98 1.3-3.25.1-4.15-.01-8.3-.07-12.45.77.32 2.3.96 3.06 1.28.13 4.64-1.22 9.57.66 13.99.25-4.63.01-9.27-.36-13.89 20.132 6.6 41.05 15.137 61.93 16.9-.83 15-.55 30.05-1.83 45.02-.89 8.34-.67 16.74-1.53 25.08-.33 11.32.26 22.64.15 33.96-1.1 1.02-2.21 2.02-3.32 3.03-.1-7.16.71-14.36-.27-21.48-1.69 7.43-.97 15.2-1.4 22.78-1.16.89-2.32 1.79-3.49 2.67.08-4.68.19-9.35.25-14.03.13-1.25-.34-2.42-.93-3.48-.9 6.06-.61 12.21-1.17 18.3-.6.48-1.78 1.45-2.38 1.93-.16-4.68.48-9.42-.35-14.06-.79 4.77-.86 9.63-.99 14.45-13.7 6.52-28.6 10.99-43.85 11.32-10.99.8-21.86-2.12-32-6.12-2.76-1.01-5.3-2.51-7.69-4.2.13-100.4.05-200.81.04-301.2z"/><path fill="#dadada" d="M112.26 3.83c11.23-.04 22.46 0 33.69-.02-4.21 4.16-5.83 10-7.32 15.54-7.18-.22-13.95 3.28-18.9 8.29-2.91 3.33-4.94 7.89-4.07 12.38 1.68 4.48 6.82 5.63 10.58 7.78 1.97.87 3.74 2.87 3.33 5.15-.78 2.47-2.98 4.16-5.13 5.4-4.71 2.57-9.71 4.52-14.65 6.6.31-15.55.61-31.12 1.77-46.64.48-4.81.7-9.64.7-14.48z"/><path fill="#fefefe" d="M140.15 21.39c2.48-6.13 3.71-13.93 10-17.43 51.27-.34 102.58-.02 153.87-.16 13.567-.022 24.107 11.222 23.54 23.05-1.483 13.337-8.843 20.102-21.44 21.44-31.806 1.78-64.733 1.21-94.14 2.82-19.786-.362-47.72 2.862-63.87-5.54-5.1-2.7-7.11-8.62-8.47-13.86-3.79-.61-8.49-1.54-11.53 1.44-3.29 7.038 7.737 11.705 8.06 17.95-.94 5.1-4.46 9.51-8.42 12.7-11.1 6.69-23.98 9.38-35.71 14.65-6.49 3.99-12.29 9.77-14.58 17.21-4.166 10.458-5.007 14.885-16.73 16.19 9.79-3.98 12.064-7.634 15.54-16.98 1.6-13.264 16.187-21.94 31.71-26.85 7.637-2.605 26.95-9.563 23.67-18.07-2.458-5.893-16.202-6.86-13.46-14.08 3.36-10.778 13.06-12.88 21.96-14.48z"/><path fill="#dadada" d="M182.45 264.11c-11.82-.62-23.62-2.13-35.48-1.51-6.64.19-13.3 1.06-19.95.43-8.16-1.09-16.24 1.12-24.4 1.13.09-7.4.89-14.76.8-22.17 1.61-17.24.77-34.57 1.26-51.85 8.626 1.002 33.048 2.748 35.13-6.27l1.47-12.85c-1.29-6.57-6.16-12.08-11.65-15.72-6.51-4.89-13.67-8.84-21.12-12.1-.13-22.91.69-45.81 1.25-68.7 8.4-3.75 18.51-5.67 24.26-13.5 2.57-3.36 5.24-7.44 4.48-11.86-1.14-5.46-6.35-8.51-8.85-13.22.53-3.2 4.94-2.82 7.43-3.34 1.74 5.59 3.85 11.89 9.27 14.95 10.22 5.69 22.26 5.69 33.61 6.28 14.39.82 28.79-.09 43.16-.68 25.96-1.47 51.98-.63 77.95-1.83 7.26-.5 15.14-1.46 20.84-6.46 5.97-4.64 8.31-12.52 8.21-19.83-.29-8.75-5.73-16.94-13.3-21.18 48.81-.04 97.62-.01 146.43-.01V33.2c-36.594-1.45-81.953-3.55-111.65 2.16-3.65.89-7.62.61-11.05 2.22-3.08 3.14-3.07 7.88-3.66 11.96-1.21 14.79-1.35 29.65-1.02 44.47-9.83-4.96-20.8-8.87-31.97-7.78-25.256 4.107-37.16 15.908-45.67 33.09-6.89 1.89-12.82 6.06-18.22 10.59-3.85 3.34-6.31 8.07-7.17 13.07-6.33-2.27-13.06-3.87-19.82-3.29-7.91.96-15.1 4.92-22.99 5.89-6.03.13-8.66-6.11-11.04-10.59-5.65 2.99-6 10.19-5.62 15.8-4.77 2.97-4.2 9.41-.91 13.27-2.93 4.24-3.03 10.2-.07 14.44 1.99 2.75 3.62 5.71 5.18 8.73-3.51 4.86-5.03 11.27-2.82 17 2.21 7.72 9.63 12.16 16.44 15.38-3.255 4.893-6.286 10.618-7.68 15.53-.34 1.2.58 2.27.8 3.42"/><path fill="#030303" d="M178.49 13.66c.85-1.93.53-5.14 2.91-5.88-.248 3.954-2.215 13.746-4.52 15.11.24-2.26.66-4.49 1.11-6.71-1.59.23-3.18.44-4.77.63-.75 1.8-.52 4.64-2.95 5.18 1.15-4.6 1.08-10.14 4.67-13.69-.25 2.12-.72 4.2-1.24 6.27 1.6-.3 3.19-.61 4.79-.91zm15.41-.61c.82-1.94 1.3-5.2 4.03-5.02 2.58-.33 5.35 2.41 4.19 4.99-1.25 2.03-3.76 2.59-5.73 3.66 2.01 1.83 4.23 3.4 6.22 5.25l-1.47 1.71c-2.58-.99-4.54-2.96-6.36-4.96-.29 1.62-.6 3.24-.96 4.85-2.39-3.03-.65-7.13.08-10.48zm-35.03-3.39c4.22-.87 8.62-1.22 12.94-1-.79 2.97-4.13 2.2-6.43 2.68-1.27 4.04-.52 8.96-3.51 12.27-.38-4.07.83-8.05 1.73-11.97-1.96.05-3.93.07-5.89.01.29-.5.87-1.49 1.16-1.99zm47.67 2.31c.95-2.72 4.12-2.81 6.53-2.65 1.15-.09 3.22.6 2.41 2.1-2.82.9-7.27-1-8.23 2.93 1.95.15 3.9.28 5.84.59-1.53 1.84-3.9 1.85-6.07 2.07l-.39 2.69c2.4.14 4.81.19 7.22.23-1.73 3.37-5.68 2.8-8.77 2.15-1.04-3.34.59-6.89 1.46-10.11zm22.64-2.72c1.41-1.14 3.32.19 3.37 1.8.4 3.96.19 7.97-.05 11.94.13 1.21-1.1 1.62-1.88 2.21-.07-2.25.01-4.5.12-6.75l-4.39.51c-.1 2.27-.27 4.55-.73 6.78-1.95-1.75-1.34-4.47-1.3-6.78.17-3.65 1.19-8.07 4.86-9.71zm7.21 1.05c1.25-2.54 4.53-1.3 5.59.76 1.62 2.72-.11 5.8-2.37 7.53 2.07 1.83 4.32 3.45 6.35 5.33-3.18 2.92-6.14-1.84-8.48-3.66-.14 1.7-.35 3.4-.74 5.06-.51-1.05-1.4-2.04-1.29-3.29-.07-3.91-.34-7.98.94-11.73zm15.5-.38c1.64-.24 4.75-.55 3.93 2.06-2.23.55-5.45-.47-6.29 2.45 1.12.11 3.37.32 4.49.42-1.05 1.76-3.03 1.91-4.83 2.2.1 1.52.23 3.04.4 4.55 1.87-.35 3.74-.67 5.62-.99-1.15 2.04-3.3 2.95-5.29 3.91-3.69-1.54-2.78-5.83-2.24-8.97.39-2.37 1.62-5.07 4.21-5.63zm-58.91-.42c.29.42.87 1.27 1.16 1.7-3.08 1.1-7.27.47-8.87 3.99 1.68.19 3.34.43 5.01.73-1.34 1.63-3.43 1.81-5.34 2.14l-.09 3 6.27-1.16c-1.07 2.96-4.27 3.91-7.15 3.59-4.194-6.54 2.806-14.228 9.01-13.99z"/><path fill="#fefefe" d="M196.84 10.16c6.11 2.646 2.114 3.066-1.66 4.53.51-1.52 1.07-3.03 1.66-4.53zm29.35 6.48c2.922-6.32 3.944-7.88 4.65-.42zm11.75-5.63c3.662 3.615 3.594 3.98-.6 5.51.16-1.84.33-3.68.6-5.51z"/><path fill="#030303" d="M274.58 14.28c2.815 11.336-11.72 12.41-11.99 5.7.568-6.377 7.775-12.33 11.99-5.7zm8.47 6.7c.96-3.37.31-7.95 3.92-9.82-1.07 4.61-1.66 9.34-3.05 13.87-3.65-.5-3.73-5.54-5.61-8.12-.95 2.68.85 7.02-2.32 8.47-.16-3.79.03-7.67 1.23-11.3.21-.94.95-1.78 1.97-1.81 1.29 2.9 2.28 5.94 3.86 8.71z"/><path fill="#dadada" d="M655.09 13.26c24.72 4.894 48.986 6.82 71.84 11.85 46.905 12.855 95.715 9.934 139.96 24.06 1.62.45 1.48 2.42 1.63 3.72.94 21.354 1.21 45.11.04 64.09.46 7.79-.09 15.58-.31 23.37-3.31-.86-5.26 2.01-7.23 4.1-2.297-5.33-1.767-6.97-6.71-3.82-2.514-10.838-9.89-5.267-14.03 1.13-1.517-5.39-.27-12.625-5.88-7.27-.61-1.89-1.76-3.49-3.13-4.88.14-3.53.29-7.06.3-10.6 2.18-1.56 4.87-3.13 5.38-6.02 1.43-7-3.19-13.19-3.37-20.05-.115-4.747 6.725-10.305 2.45-24.74 11.463-1.746 7.18-10.85 2.27-17.43-4.82 5.56 1.576 8.035-7.82 7.91-15.182-15.968-27.105-10.83-34.74-1.74-3.54.99-6.07-2.24-7.4-5.11-5.945 5.957-7.42 13.183 1.53 15.09-1.508 12 5.552 15.636 4.58 27.73-3.81-.05-8.31-2.73-11.66.09-3.39 2.9-4.35 8.16-2.85 12.25 2.74 4.94 9.27 4.64 14.13 5.37-1.06 3.53-2.53 6.92-3.9 10.34-2.79-.1-5.28 1.04-6.99 3.22-.83-1.48-1.42-3.29-2.97-4.18-1.9-1.14-4.16-.4-6.16-.08-1.26-3.3-2.15-6.74-3.61-9.96l.08-.19c.16-.34.47-1.01.62-1.35-.21-.59-.63-1.75-.85-2.34-1.15-2.5-1.53-5.7 1.28-7.28l-1.13-.61 1.31-.32c.23-.56.7-1.67.93-2.23-.87-.15-2.61-.43-3.48-.58-.88-5-1.11-10.12-.26-15.15 3.52-.08 3.17-4.13 3.53-6.62-.79-.19-2.39-.57-3.18-.76.15-9.28 1.38-18.5 3.85-27.45 3.637-1.376 4.022-4.388 1.55-6.67l-.4-3.26c-1.89-.72-2.68 1.37-3.66 2.41-6.34-.246-6.115 1.864-1.95 6.11-3.39 8.96-9.24 16.72-14.39 24.73-1.54-.35-3.08-.68-4.62-.99-1.02 2.48-2.02 6.06.94 7.68l-1.62 1.79c5.236-1.604 5.262.16 9.55-.43l-.37 1.43c2.03-.85 3.35-.23 5.38.06.07 1 .803 6.27.903 7.26.03-.68.732-5.67.772-6.35.74.05 1.705-.16 2.445-.1-.51 2.67-.95 5.35-1.44 8.03-.15-.48-.44-1.45-.59-1.93-1.35-.71-2.68-1.45-4-2.19-.79-3-3.72-4.18-6.37-5.06-.79 1.99-1.64 3.95-2.47 5.91-.49-.91-2.978-4.88-3.478-5.8-.81 1.65 1.598 5.36 2.438 6.78-1.74.19-3.42.53-5.11.94-1.31.4-2.63.71-3.93 1.07-.6 2.17-2.92 1.65-4.59 2.09-1.48.82-.64 2.54-.28 3.73l-.76 2.3c-3.03 4.06-7.25 6.93-10.96 10.3-.94-.17-2.81-.51-3.75-.67-1.778-10.424-8.887-9.086-15.33-4.45-1.83-.2-3.66-.19-5.45.15-1.64-4.17-6.01-6.24-10.3-6.17.3-1.43.43-2.94 1.12-4.25 4.43-1.82 9.52-2.27 14.05-.52 1.44 1.39 3.06.89 4.13-.68.83.47 1.67.94 2.52 1.41 2.3-2.76 2.89-8-.88-9.77-5.18-2.2-10.97 0-16.38-1.08.99-2.79 2.56-6.59 6.07-6.65 7.68-.41 15.41.41 23.07-.42 4.85-1.224 4.59-3.31 2.91-6.61 2.39-.54 4.77-1.05 7.14-1.7.8.83 1.16 2.39 2.49 2.54 7.83-6.238 10.23-17.623 3.25-23.59-6.39-6.66-16.21-5.94-24.57-7.56-5.46-3.52-9.82-10.67-17.19-9.44-3 1.42-2.2 5.07-1.07 7.5-6.167-1.96-21.907-.653-13.24 7.67-7.847.458-13.963-.234-10.4 9.2-8.55.135-11.422-.727-9.93 8.92-6.92-.273-8.642 2.74-8.64 8.99-2.03-.01-4.59-.56-5.93 1.42-2.13 3.1-1.2 7.14-1.67 10.66-5.82-.53-8.18-6.67-9.16-11.62-1.43-8.338 3.598-17.193 4.6-21.16-11.578 11.178-14.49 29.595-7.72 42.7-7.062.002-6.985-1.247-10.39-3.49.227-25.81-1.708-49.194-1.64-72.99-1.11-9.362 25.92-2.342 31.25-1.74z"/><path fill="#030303" d="M301.62 21.15c-1.89-3.07-4.77-7.02-2.61-10.62 1.25 2.45 2.28 5 3.45 7.49 1.1-2.6 2.07-5.38 4.3-7.28-1.31 4.82-3.03 9.52-4.45 14.31l-1.86 1.66c.27-1.88.7-3.72 1.17-5.56zm-11.04-8.93c1.95 3.32-.61 7.07-.47 10.62 2.08-.81 4.18-1.6 6.41-1.87-1.5 2.5-4.37 3.42-6.83 4.65-1.12-.93-2.07-2.1-1.49-3.65.44-3.32 1.26-6.6 2.38-9.75z"/><path fill="#fefefe" d="M272.8 19.13c-1.088 4.807-9.325 4.084-8.33-1.21.995-5.294 9.418-3.597 8.33 1.21z"/><path fill="#dadada" d="M51.89 19c17.876-5.66 35.305-3.004 41.76 15.07 4.87 11.37 3.62 24.02 3.68 36.07-6.58 2.68-12.09 7.24-16.85 12.43-3.59 3.18-4.98 7.91-6.02 12.43-2.94-.6-6.12-1.5-9.03-.41-9.505 7.65-12.235 21.108-14.23 31.54-1.26 8.95 0 17.99.55 26.95l-17.59 6.24c4.175-5.727-5.416-94.077-1.86-110.45C34.284 36.48 39.775 21.915 51.89 19z"/><path fill="#030303" d="M170.53 26.64c1.69 3.44-.71 7.35.31 10.97 1.22-2.5 2.11-5.17 3.59-7.55 1.15 2.06 1.7 4.38 2.65 6.53 1.19-3.32 1.52-6.95 3.31-10.04 1.09 2.81-.17 5.74-.9 8.47-.56 1.83-1.74 4.8-4.2 3.81-.34-.85-1.02-2.54-1.36-3.38-.98 2.26-2.26 4.39-4.14 6.02-2.01-4.68-1.11-10.24.74-14.83zm-16.29 3.64c2.87-3.81 8.7-2.37 12.84-2.29-1.27 1.01-2.68 1.82-4.13 2.54-1.14 3.62-.18 8.19-3.22 10.94-.16-3.76.69-7.46 1.37-11.13-2.29.11-4.58.19-6.86-.06zm32.27-.73c11.713-2.97 9.062 11.326 1.6 10.88-7.96-.377-5.72-8.65-1.6-10.88zm37.4 12.37c-1.51-5.33 1.03-12.77 7.27-13.37.32 4.89 1.57 10.93-1.99 14.92-.17-2.29.18-4.57.53-6.83-1.38.27-2.75.53-4.13.79-.57 1.44 0 3.81-1.68 4.49zm-18.55-6.25c-1.82-4.43 5.27-8.67 7.97-4.23-2.36.25-4.91.16-6.82 1.81 2.58 1.25 7.54 1.76 6.77 5.75.05 6.12-11.19 4.74-9.28-1.04 2.34 1.07 4.6 3.6 7.38 2.3.3-3.49-3.87-3.29-6.02-4.59zm13.08-5.18c1.06-1.24 5.13-1.76 4.84.66-2.01.7-4.3.96-5.38 3.03l3.84.92c-1.3 1.73-5.27 1.27-4.42 4.2 1.65.12 3.31.21 4.97.28-1.26 2.56-4.38 2.94-6.77 1.76-.63-3.75.78-7.79 2.92-10.85zm14.58 1.72c3.03-3.02 7.83-1.92 11.71-2.37-.96 2.34-3.27 2.58-5.48 2.73-1.44 3.27.32 8.38-3.33 10.18.13-3.35.7-6.67 1.56-9.91-1.49-.17-2.98-.38-4.46-.63zm12.82 4.9c-1.79-3.78 3.01-9.09 6.95-6.65.16 2.76-2.96 1.83-4.75 2.23-.18.54-.56 1.62-.75 2.15 2.08.73 4.13 1.57 5.9 2.9-.36 1.91-.11 4.31-1.92 5.57-2.36 2.24-6.85.53-6.79-2.92 2.18.51 4.32 1.18 6.53 1.55.69-3.41-2.88-3.76-5.17-4.83zm21.04-7.6c1.31 4.21-2.5 7.96-2.44 12.22 2.37-.34 4.71-.89 7.1-1.16-1.77 2.61-6.32 4.99-8.98 2.6.15-4.85 2.18-9.39 4.32-13.66zm8 3.45c1.37-2.62 4.79-2.72 7.36-2.47-1.71 2.39-5.17 2.15-6.91 4.52.99.15 2.98.45 3.97.61-1.06 1.27-2.63 1.81-4.15 2.3-.17 1.35-.31 2.7-.44 4.05 1.73-.15 3.46-.27 5.2-.36-1.36 2.72-4.45 3.15-7.15 2.73 0-3.87.5-7.83 2.12-11.38z"/><path fill="#fefefe" d="M716.97 38.78c18.422-.296 34.015 12.34 21.06 26.29-.43-.65-1.29-1.96-1.71-2.61-8.09 3.6-15.883-1.018-23.48-.59-2.75.27-5.12 4.07-2.77 6.21 5.54 2.16 11.73.91 17.43 2.49-8.72 2.06-17.85.04-26.67 1.2-4.16 1.98-7.06 6.66-6.57 11.31 5.04.99 10.2-.21 15.24.61 2.22.35 3.33 2.27 3.79 4.29-.88-.72-1.75-1.45-2.61-2.19-.6.81-1.18 1.61-1.75 2.43-4.79-2.13-10.45-1.24-15.38.09-2.8.73-3.46 3.89-4.15 6.28-7.173-1.102-9.134 2.39-14.22 6.22-1.6-3.17-5.28-4.87-8.7-3.55-4.006-3.67-6.574-2.748-8.64.68-3.5-3.96-15.147-8.454-18.94-7.2-5.74-8.54-5.06-19.4-2.44-28.9-.52 6.8.37 14.44 4.99 19.77 1.99 2.62 6.72 3.7 8.55.33.762-8.775 1.054-11.3 9.26-7.13 1.86-3.04-2.02-5.67-1.37-8.89 1.484-5.78 7.354-.773 9.64.9 3.36-4.02-2.28-8.06-1.46-12.47 4.27-.74 8.51.75 12.75.36 2.08-3.51-3.42-5.35-3.89-8.72 5.01-1.59 10.29-.63 15.41-.37.11-.62.31-1.85.41-2.47-13.524-8.194 3.023-6.67 10.36-4.61.26-.41.79-1.22 1.05-1.63-8.38-15.713 9.497.137 14.81 1.87zm-491.51-3.93c3.29-3.63 3.894-5.825 4.21-.21-1.4.09-2.81.16-4.21.21z"/><path fill="#030303" d="M281.89 44.61c-.55-4.79.66-9.56 1.8-14.18 2.64.09 5.28.19 7.91.48-.79 3.27-4.29 2.04-6.69 2.23-.27 1.05-.54 2.11-.8 3.16 1.45.01 2.89.03 4.34.13-1.31 1.19-2.83 2.08-4.5 2.65-.36 1.95-.56 4.05-2.06 5.53z"/><path fill="#fefefe" d="M186.07 31.84c4.128-2.777 8.972 3.72 4.97 5.85-4.002 2.13-9.098-3.073-4.97-5.85z"/><path fill="#030303" d="M291.52 34.13c.35-.54 1.06-1.6 1.41-2.13 4.04-.14 8.13-.85 12.15-.19-1.6 2.23-4.36 2.2-6.77 2.67-.78 3.8-1.55 7.62-1.78 11.51l-1.76.96c-.38-4.27.9-8.44 1.8-12.57-1.69-.04-3.38-.12-5.05-.25z"/><path fill="#8d8d8d" d="M448.64 35.98c.16 1.41.32 2.83.53 4.23.24-1.39.47-2.78.69-4.18l3.55-.28c-.54 4.02-2.61 8.31-.64 12.24.41-4.08.79-8.16 1.1-12.25l9.38-.17c.04 35.62-.06 71.25.05 106.87-5.88 1.645-18.107.024-19.1 7.42-3.28 19.01-3.02 38.46-1.35 57.61-.07 3.89 4.54 3.38 7.2 3.95.03 2.61.1 5.22.44 7.81 1.04-2.53.87-5.29.88-7.96l3.87.12c-.42 6.04-.99 12.14-.23 18.18 1.26-6.05.842-12.837.73-18.18 2.51-.27 5.01-.58 7.53-.89l-.03 54.77-119.29.09-1.14-17.56c3.48-1.17 6.96-2.35 10.39-3.69-.21 3.13-1.31 6.62.2 9.56 2.51 2.03 5.91 2.56 8.8 3.93 3.53 1.77 7.49.18 10.19-2.3 1.32-.05 2.65-.1 3.99-.12 2.24 3.73 7.91 2.53 9.99-.76 2.87-4.48 2.45-10.41.13-15.04 5.52-10.16 6.17-22.04 6.4-33.35-3.275-18.86 3.48-44.278-10.56-57.43-.03-2.64.16-5.85-2.33-7.5-6.28-4.31-13.43-7.2-19.74-11.45-2.06-7.13-4.58-14.18-8.23-20.66-3.72-5.88-9.32-10.25-14.94-14.2 1.606-11.058-1.362-49.687 4.17-55.18 8.2-1.33 16.42-2.99 24.77-2.99 28.09-1.664 55.057-2.205 82.6-.64z"/><path fill="#dadada" d="M767.54 41.24c2.54.44 5.11 1.15 7.13 2.84-2.64-.07-5.22-.99-7.13-2.84z"/><path d="M351.11 48.56c-.02-2.37.15-4.82 1.44-6.87.03 2.33 1.1 5.43-1.44 6.87z"/><path fill="#030303" d="M342.64 42.43c-1.905 8.284-.594 44.84-3.31 47.12.344-15.224-1.386-33.984 3.31-47.12zm5.18 10.3c-2.22-2.86-1.46-6.92-.32-10.08.54 3.33.64 6.72.32 10.08zm-44.744-7.18c-1.105-1.782.925-2.95 1.954-1.92 1.03 1.03-.85 3.702-1.954 1.92zm432.314 0c-.92 1.25-2.42.92-3.74.82.72 4.81-3.72 9.59-8.55 9.06-2.75-.21-6.01-.79-7.54-3.36-3.746-12.054 14.086-8.534 19.83-6.52zm-37.23-.38c3.15-.59 6.29 1.44 9.43 1.96-6.317 2.81-10.89-2.202-3.32 4.17-5.117 4.286-9.77 2.43-.58 3.65-5.02 7.054-3.915 4.746 2.94 3.54-3.44 4.198-11.586 6.65-6.94-1.55-8.46.843-4.44-5.102.1-5.96-1.57-1.27-4.47-4.33-1.63-5.81z"/><path fill="#fefefe" d="M726.96 45.95c6.07 7.18-3.17 7.727-7.85 5.8-7.81-6.992 4.1-6.02 7.85-5.8zm42.01 4.18c.21-1.83.74-3.74 2.57-4.57-.26 2.1-.68 4.18-1.02 6.27-.36-.14-1.09-.42-1.46-.56-.29.68-.86 2.05-1.15 2.73l.47.48c1.95 1.11-.26 4 .09 5.92-.7-1.49-.38-3.84-2.14-4.57.53 1.73.23 3.83-.4 5.54-.69-1.11-1.35-2.23-2-3.35 1.68-2.63 3.07-5.46 5.04-7.89z"/><path fill="#030303" d="M719.53 49.96c.34-2.61 3.17-1.65 4.17-.07-1.13.42-5.05 3.48-4.17.07zm-659.18.54c4.5-1.31 9.97-1.45 14.17.81 7.34 6.74 5.19 19.23-1.46 25.68-7.904 5.188-16.038 2.355-20.16-5-3.92-7.56-.32-18.05 7.45-21.49z"/><path fill="#fefefe" d="M67.26 52.77c1.68-.47 3.65-1.34 5.2-.08 2.37 2.44 3.22 5.98 3.11 9.3-.08 3.9-.51 8.24-3.48 11.1-1.32 1.25-2.69 3.27-4.78 2.73-1.54-1.74 1.22-2.49 2.25-3.27 3.7-2.1 3.93-6.81 4.03-10.58.16-4.07-1.58-9.06-6.33-9.2zm729.72 6.22c2.72-2.87 5.93-5.61 9.84-6.63 7.52-.88 15.94 1.15 20.7 7.44-1.99 4.38 1.91 8.06 5.86 9.04 1.56 4.33 2.6 9.11 1.3 13.64-.73 2.85-2.23 5.48-2.59 8.42-.19 4.65.19 9.45 2.47 13.61.76 3.61 2.52 9.22-1.6 11.39-4.94 2.6-10.94 4.27-16.41 2.37-6.26-4.886-9.15-7.31-16.82-7.95 4.967-1.33 12.752-4.367 12.89 1.95 4.81-2.58 10.17-3.67 15.61-3.71 1.71-2.663.153-4.685-1.35-6.78l.36 4.7c-2 .05-3.99.13-5.96.25-2.58-3.74-6.31-7.68-11.31-6.98-7.885-1.288-25.41 10.51-18.24.07-1.83.87-4.72 2.57-3.36 4.98 6.68 2.32 12.88-3.23 19.62-2.92 2.793-1.894 14.305 3.647 9 6.25-3.68-1.27-7.47-3.8-11.49-2.44-6.966 2.645-19.614 6.228-23.65-.61-1.2-3.17-.36-6.92 2-9.34 1.493-1.374 11.566 2.94 13.41-1.57-.44-3.47-.91-6.94-1.64-10.36-1.01-4.36-4.47-8.04-4.02-12.73-.16-4.62 2.39-8.77 5.38-12.09z"/><path d="M456.49 54.508c.96.762.94 2.9.32 4.012-.97-1.483-.218-2.36-.32-4.012z"/><path fill="#fefefe" d="M787.05 54.62c1.53 2.63 3.83 4.55 6.96 4.93-.95 1.43-1.89 2.87-2.78 4.32-7.018-.75-5.66-3.438-4.18-9.25zm51.68 1.57c3.647 9.473.533 6.69-3.88 10.06-2.96-.42-5.54-2.4-6.34-5.33 9.015-.186 6.72.378 10.22-4.73z"/><path fill="#030303" d="M392.54 58.88c19.528-1.366 25.744-.323 34.69 17.02 6.257 16.4-4.67 37.22-20.19 39.87-19.772 1.315-31.998-2.697-36.33-22.24-1.8-15.077 7.786-32.544 21.83-34.65z"/><path fill="#fefefe" d="M762.02 62.17l1.64-4.05c.36 1.45.67 2.9.93 4.37.61.96 1.18 1.95 1.73 2.95-1.08.66-2.08 1.32-3.13 1.98 1.24 1.58 2.35 3.25 3.42 4.96-3.24 1.36-6.6-.25-9.75-1.05.45-.38 1.36-1.15 1.82-1.53.43 4.23 1.967-1.31 2.93-2.59l-2.28-.02c2.487-1.017 3.458-2.252 4.47-4.59-1.76 1.08-3.41 2.35-5.14 3.46.72-1.6 1.85-2.98 3.36-3.89zm5.76 1.74c-1.66.31-2.53-2.67-.81-3.13 1.53-.11 2.3 2.52.81 3.13z"/><path fill="#030303" d="M820.39 62.85c-1.27 2.4-3.73 3.67-5.9 5.11.71 3.22.7 7.21-2.03 9.5-8.53 5.277-15.54-.793-10.62-9.52-2.676-1.518-3.29-1.705-1.98-4.45 10.987 6.46 11.023 2.62 20.53-.64z"/><path fill="#fefefe" d="M387.3 64.17c-24.775 14.17-8.482 45.556 3.3 44.05-24.03-14.953-11.626-36.764-3.3-44.05zm380.55 6.49c-1.47.41-3.43-3.33-1.5-3.66 1.3.54 2.11 2.36 1.5 3.66zm-10.64-1.81c.66-.74.66-.74 0 0z"/><path fill="#030303" d="M160.06 69.48c7.01.73 13.9-1.41 20.9-1.04 11.58.46 23.14 1.92 34.5 4.24 14.604 1.982 27.113 10.686 26.99 25.32-.757 19.538-9.194 25.626-28.48 26.16-18.58.56-37.16 1.06-55.75 1.1-.62 5.23-.99 10.49-1.1 15.76-.08 6.34 4.56 11.45 5.33 17.59-4.96-2.03-8.88-6.18-11.52-10.77-3.7-6.88-4.21-15.05-3.03-22.66-7.17-.51-15.01-.47-21.07-4.92-7.03-4.5-11.29-13.02-10.66-21.34 3.602-20.28 21.522-31.612 43.89-29.44z"/><path fill="#b8b8b8" d="M757.21 68.85c-.61.67-.61.67 0 0z"/><path fill="#fefefe" d="M803.42 68.95c2.79 1.03 5.76.67 8.67.7 1.903 5.13-1.418 6.542-5.66 7.29 1.588-6.744.112-6.58-2.115-.692-3.154-.34-2.93-5.558-.895-7.298zm-641.44 2.86c6.04.59 11.98-.99 18.01-.91 10.02.33 20 1.5 29.88 3.2 7.02 1.36 14.23 2.83 20.56 6.3 5.72 4.28 10.16 11.18 9.48 18.57-.41 5.05-.5 10.85-4.23 14.75-3.55 4.2-8.56 7.36-14.19 7.5-21.28 1.1-42.59 1.38-63.89 1.48-2.582.11-3.26 21.968.32 30.18-11.477-11.402-8.352-24.607-7.6-30.75-7.52.17-15.91.66-22.28-4.09-8.19-5.33-12.33-17.27-7.1-25.99 7.843-16.57 24.154-21.79 41.04-20.24zm240.97-.85c-3.29 5.64-6.99 11.11-11.13 16.15 2.05-5.98 6.76-12.54 11.13-16.15zm347.41.34c6.42 2.58 13.18 3.97 19.89 5.55.18.51.56 1.53.74 2.03-5.45-.36-10.66-2.17-15.95-3.39-1.54-.74-3.17-1.31-4.78-1.86.03-.58.07-1.75.1-2.33zm-341.27.78c-6.636 7.515-11.773 20.93-17.8 26.85 3.883-9.992 11.145-19.814 17.8-26.85z"/><path fill="#b8b8b8" d="M767.36 73.1c.61.58.61.58 0 0zM99.61 78.13c2.51-.99 5.04-1.93 7.58-2.85-.56 22.22-1.48 44.44-1.37 66.68-3.99-2.23-9.04-2.78-12.16-6.34 1.85-19.18 3.9-38.34 5.95-57.49z"/><path fill="#030303" d="M150.9 80.01c1.59-2.35 6.97-3.78 8.47-1.01-2.62 2.12-8.14-.2-7.89 4.66 1.65.05 3.71-.79 4.85.92-1.61.72-3.26 1.35-4.91 1.94-.5 2.62 1.22 6.76-2.05 7.93.06-4.82-.15-9.87 1.53-14.44zm8.48 2.08c.17-4.29 6.91-5.93 8.87-2.04 1.44 3.37-1.8 5.89-4.44 7.19 1.68 1.48 3.45 2.87 4.88 4.6-.41.45-1.23 1.35-1.64 1.79-1.94-1.4-3.68-3.05-5.42-4.69-.27 1.86-.67 3.7-1.27 5.49-1.8-3.79-.88-8.28-.98-12.34z"/><path fill="#dadada" d="M78.1 99.04c1.5-9.66 9.5-17.13 18.62-19.87-1.92 19.2-3.99 38.44-4 57.76-2.13.58-4.25 1.23-6.35 1.89.24-7.9.45-15.92-1.12-23.71-1.16-5.82-4.01-11.1-7.15-16.07z"/><path fill="#fefefe" d="M161.69 80.67c8.37.614 5.094 3.41-.52 4.52.16-1.5-.1-3.11.52-4.52z"/><path fill="#030303" d="M194.85 80.99c4.82-1.03 9.78-1.45 14.7-1.46-.79 2.78-3.72 2.48-5.98 2.85-.56 4.31.79 8.81-.68 12.95-2.66-3.69-.99-8.53-1.14-12.74-2.41.04-5.25.71-6.9-1.6zm-24.14 10.33c-1.43-4.05.19-9.07 4.19-10.98 2.14 1.17 4.95 2.06 5.73 4.67 1.21 3.02.25 7.79-3.59 8.13-2.14.07-5.04.24-6.33-1.82zm20.02-1.03c.33-3.21-1.85-7.45 1.17-9.77.52 4.29.91 8.6.99 12.92-.73.12-2.2.36-2.93.49-1.65-2.48-3.35-4.94-5.18-7.28.22 2.74.53 5.52-.14 8.24-1.91-2.54-1.61-5.9-1.94-8.9-.35-1.84.62-3.46 1.37-5.05 2.4 2.98 4.24 6.37 6.66 9.35zm558.76-12.343c1.39 2.32-1.87 6.033-3.2 7.663-.51.25-2.804 2.666-3.314 2.916 1.33-2.24 5.154-8.36 6.514-10.58z"/><path fill="#dadada" d="M751.21 91.76c1.54-3.32 3.06-6.66 4.67-9.95 1.19.85 2.7 1.4 3.67 2.57.82 3.13.67 6.42.78 9.64-3.01-.88-6.04-1.69-9.12-2.26z"/><path fill="#fefefe" d="M178.24 85.75c2.754 5.477-1.64 5.754-5.33 4.25-3.307-6.117 3.386-7.612 5.33-4.25zm226.62 9.53c1.48-3.96 3.62-8 6.95-10.7-1.77 3.84-3.59 7.97-6.95 10.7zm357.12-8.96c3.38.06-1.43 3.09 0 0z"/><path fill="#030303" d="M803.36 90.44c.64-1.73 1.59-4.12 3.83-3.95 2.61-.14 4.28 2.38 5.07 4.56-4.14-2.174-5.04-2.667-8.9-.61z"/><path fill="#fefefe" d="M748.38 88.72c.62-1.13 1.46-1.46 2.53-.97.83 2.34-3.01 4.37-2.53.97zm13.88.37c.7-.43 1.42-.83 2.16-1.21.72.72 1.45 1.44 2.19 2.15.21 2.05.55 4.09.9 6.12-.89-.64-1.78-1.28-2.66-1.91.33-.86 1.77-3.11 2-4.01-3.575 3.387-5.36.72-4.59-1.14zm-19.75 1.28c1.32-.58 2.67-1.1 4.03-1.62.49.56 1.47 1.67 1.96 2.23-2.01-.16-4.01-.35-5.99-.61z"/><path fill="#8d8d8d" d="M625.65 90.07c.47.78 1.4 2.33 1.87 3.1 3.34.43 7.76-.56 9.45 3.25 3.092-3.33 2.876-5.6 5.95-1.4 3.19-2.45 7.37.648 10.18 1.93 2.9 1.44 4.05 4.69 5.47 7.38-2.03.55-4.04 1.18-5.89 2.2 3.94-.27 7.83.07 10.96 2.75-.81-2.26-2.58-3.81-4.7-4.77 1.114-5.727 3.947-11.273 5.78-3.83 5.337-2.97 7.202-2.09 10.14 3.24 8.65-7.652 8.145-8.958 15.18-6.11 4.83-.83 10.14 2.07 10.5 7.31 1.58-2.23 4.76-3.12 6.34-.32.98-3.86 6.76-4.424 9.97-4.56 3.16 1.2 3.57 4.81 3.98 7.7 2.74.01 4.94 1.53 6.72 3.5 8.792-4.09 4.372 8.044.42 8.77-3.05.53-6.01 1.41-8.98 2.25-1.393 4.463-5.816 3.177-8.93 2.75 2.988 7.74-3.458 6.067-7.21 3.01-1.02 2.19-3.1 3.11-5.35 3.49-.49 1.98-1.553 2.31-3.33 2.95-11.724-8.564-29.653-4.65-40.05 5.29-1.02.71-1.86 2.16-3.31 1.82-1.6-1.11-1.72-.29-1.56 1.16-8.324 1.38-12.56-6.95-11.77.5-4.63 1.1-6.218 2.472-7.35 5.51-1.72.08-3.43-.04-5.13-.11z"/><path fill="#fefefe" d="M738.83 91.72c11.31.92 22.27 4.22 32.92 7.89l-1.31.32c-10.87-.68-21.04-4.88-31.67-6.86l.06-1.35zm-428.85.98c12.33 1.86 24.56 6.88 33.24 16.09 5.14 4.64 7.34 11.4 9.87 17.63-3.27-1.28-6.62-2.35-10.01-3.24.2-9.37-8.15-15.61-15.62-19.54-6.68-3.85-15.44-7.2-22.71-3.01-3.89-4.46-10.47-3.7-15.64-2.44-6.38 1.19-11.1 6.26-14.57 11.41-3.98 1.88-8.74 3.7-10.17 8.34l-3.72.71c12.4-16.325 24.395-27.323 49.33-25.95z"/><path fill="#dadada" d="M763.09 94.21c.65.63.65.63 0 0z"/><path fill="#fefefe" d="M739.025 95.214c1.86.4 5.315 1.686 7.195 2.016.05.89.13 2.68.18 3.57-1.52-.79-2.5-2.11-3.39-3.5l-3.6 1.55c-1.4-.88-.455-1.956-.385-3.636z"/><path fill="#030303" d="M171.86 107.71c.99-3.29-1.27-8.22 2.22-10.3.11 4.94.67 10.41-2.09 14.79-1.55-1.54-2.8-3.34-3.98-5.17-.29 2.28-.52 4.79-2.45 6.34-1.65-4.36-3.72-9.31-2.6-13.96 2.65.97 1.68 5.29 2.71 7.65.46-1.8.98-3.6 1.99-5.19 1.46 1.9 2.8 3.9 4.2 5.84zm48.32-6.83c.43-4.37 7.18-4 9.26-.77 1.24 3.09-1.66 5.49-4.3 6.31.18 1.74.31 3.5-.15 5.22-2-1.24-2.15-3.69-2.37-5.78.65-2.56 4.35-1.54 5.34-3.8-2.02-2.36-5.39-1.62-7.78-1.18z"/><path fill="#fefefe" d="M748.08 100.91c-1.59-.21-1.88-3.13-.24-3.47 1.53.24 1.81 3.11.24 3.47z"/><path fill="#030303" d="M138.43 101.05c2.02-3 8.15-2.67 9.31 1.04.44 2.66-2.38 3.81-4.16 5.03 2.03 1.98 4.16 3.87 6.09 5.96-.3 1.45-1.03 1.9-2.19 1.37-2.47-1.99-4.54-4.42-6.74-6.69-.1 1.97.41 4.3-1.25 5.82-.94-4.09-1.62-8.35-1.06-12.53zm14.03-1.61c4.46-1.86 9.95 2.91 8.14 7.59-.68 4.17-6.95 6.67-9.68 3.03-2.47-3.39-.72-7.65 1.54-10.62zM214.04 98c2.69 1.8 1.77 5.28 2.06 8.01-.18 3.2.91 6.45-.06 9.6-2.5-1.66-1.62-4.96-2.07-7.47-1.53.34-3.07.68-4.6 1.03-.03 2.47.81 5.31-1.53 7.06.13-5.636-2.29-12.35 1.24-16.59.27 2.39.34 4.8.35 7.2 1.49-.3 2.99-.6 4.49-.89-.02-2.65-.08-5.31.12-7.95z"/><path fill="#fff" d="M749.966 98.325c2.35.77 4.054.585 6.244 1.815-.03 1.11-.13 2.22-.3 3.32-2.89-1.11-6.824-.675-5.944-5.135z"/><path fill="#030303" d="M185.44 99.52c2.37 1.76.94 5.1 1.38 7.55l4.58-1.31c.21-2.08.27-4.17.59-6.24.69 1.03 1.61 2.07 1.47 3.43l.87 12.05-1.85 1.34c-.51-2.67-.77-5.38-.92-8.1l-4.74 1.11c-.15 2.26.7 5.09-1.8 6.36-.16-5.39-.72-10.87.42-16.19zm12.74 12.25c-1.53-3.87-1.3-8.21-1.2-12.31 3.58 2.49.91 7.75 3.36 10.92 5.645 1.87 1.5-7.114 4.78-10.62.2 3.61.38 7.35-.64 10.86-.75 2.6-5 3.99-6.3 1.15z"/><path fill="#fefefe" d="M294.22 99.82c3.27-.01 6.6-.01 9.74 1.06-2.48 1.8-4.74 3.92-6.2 6.64-4.1.85-7.31 4.12-8.91 7.87-7.43-.71-14.72.63-22 1.95 2.17-2.11 4.88-3.51 7.49-4.98.65 3.84 6.67 3 8.91.89-2.19-.53-4.4-.87-6.61-1.24 5.05-3.17 12.14-.1 16.55-4.76 2.52-1.78 2.19-4.94 1.03-7.43zm441.25 3.75c.23-1.49-.25-5.1 2.44-3.99 3.99 1.2 8.13 1.92 12.03 3.48-3.67.29-7.33.36-10.99.55l-.72-3.08c-.796 3.088-1.85 6.766-4.53 3.67-1.16.98-2.32 1.94-3.42 2.96 2.09-.16 4.11-.75 6.11-1.37-2.23 2.52-6.49 2.38-9.3 3.02.87-3.37 5.17-4.6 7.32-7.25.26.51.8 1.51 1.06 2.01zm31.47-1.78l-.32 3.9c.46.32 1.37.97 1.83 1.29-.29.65-.87 1.95-1.15 2.6-.64-.63-1.9-1.88-2.54-2.5.45 1.77.99 3.52 1.43 5.3-2.99-1.1-4.47-4.27-7.41-5.52.7 1.69 1.68 3.26 2.57 4.87 1.19.54 2.39 1.09 3.59 1.66-.92 1.35-1.88 2.68-2.89 3.96-1.293-5.772-4.328-9.808-7.08-12.7 2.68 1 5.49 1.52 8.34 1.8.07.91.2 2.73.27 3.63.37-1.12 1.11-3.38 1.48-4.51l-1.18-.09c-.43-1.2-.89-2.38-1.38-3.55-.19.93-.59 2.8-.79 3.74-2.04-.84-1.43-3.33-1.99-5-.2.99-.61 2.97-.82 3.96-6.007-6.97 5.648-2.938 8.04-2.84zm-626.64-.16c8.323 1.11 5.576 2.267-.1 3.68.03-1.23.06-2.45.1-3.68zm137.05 7.36c3.91-3.997 9.614-12.277 16.41-4.82-1.71 2.07-4.23 3.04-6.65 4 3.25-5.61-4.534-3.338-4.77.44zm-124.24-7.18c3.14-.96 7.31 3.24 5.18 6.31-1.54 1.6-4.76 1.66-5.88-.46-1.18-1.86-.92-4.34.7-5.85zm147.32 5.22c1.96-1.99 4.35-3.47 6.78-4.83-3.075 10.307 2.24 13.16 11.97 10.84-.72 1.53-1.02 3.18-.91 4.87-3.62-.56-7.28-.74-10.94-.85.77-2.38.45-5.52-2.4-6.26-1.41-.82-2.16.9-3.16 1.48 1.95.86 3.93 1.83 4.75 3.97-5.16.58-10.31-.73-15.46-.98 1.04-1.32 2.09-2.66 3.46-3.67 1.75-1.17 4.64.54 5.87-1.62l.04-2.95zm8.97 2.45c-2.52-1.79-1.72-5.91.49-7.58 3.29.04 6.72.24 9.76 1.64 11.513 5.494 18.102 8.023 22.84 19.5-3.76-.79-7.45-1.84-11.2-2.67 9.803-6.17-1.48-12.584-9.7-9.55 3.54-5.99-9.4-8.39-8.46-1.78 3.74.644 3.957-1.73 7.29.51-3.22 2.05-7.93 2.31-11.02-.07zm-232.71-6.72c6.49 8.58 7.75 19.64 8.19 30.05-1.46-.31-2.87-1.11-4.41-.89.46 1.95 2.98 1.89 4.45 2.67-.01 1.56 0 3.12.02 4.69-1.53-.49-3.07-.97-4.59-1.46-.06-2.9-.74-5.75-.52-8.63l3.98.6c-.06-2.5-2.99-3.14-4.06-.77-.3-8.8-.91-17.68-3.06-26.26z"/><path fill="#dadada" d="M734.07 110.56c11.72-7.554 26.554-5.388 26.71 9.05-1.34 1.6-2.27 3.46-2.81 5.47-7.91-4.14-16.72-5.91-25.14-8.65 1.682-2.35 2.197-3.447 1.24-5.87z"/><path fill="#fefefe" d="M770.93 118.77c-.935-5.452-5.28-2.638-5.75 1.06 5.43-2.23 5.157-1.654 8.41 2.44-.41.38-1.23 1.16-1.64 1.55-1.785-3.142-2.213-3.076-5.7-1.1-1.17-1.63-2.72-3.04-4.76-3.43 2.52-3 5.07-6.02 7.2-9.31.096 3.47 2.27 6.026 2.24 8.79z"/><path fill="#030303" d="M176.22 115.35c.41-2 .18-4.68 2.52-5.52-.36 1.99.09 4.98-2.52 5.52z"/><path fill="#fefefe" d="M795.724 112.2c6.24 1.24 11.956 3.22 16.816 7.35 5.06 3.91 11.82 2.18 17.33.3-.14 3.36-.41 6.71-.78 10.06-1.76 1.63-3.08 3.64-4.12 5.79-2.953-4.42-5.208.543-6.85 3.21-1.933-5.593-3.513-6.015-6.97-2.92-2.328-8.216-6.148-8.137-11.26-2.08-2.103-5.434-2.604-11.665-8.41-8.56 1.22-4.67 3.824-8.28 4.244-13.15z"/><path fill="#030303" d="M223.2 113.68c.05-1.318 3.15-2.125 3.15-.46s-3.198 1.778-3.15.46z"/><path fill="#fefefe" d="M319.82 115.04c3.3-4.5 11.95-3.67 13.32 2.26-6.21.058-4.926-3.164-8.19-3.03-1.098 2.248-.547 3.034.88 4.85-2.57-.3-6.14-.65-6.01-4.08z"/><path d="M663.44 115.22l5.73 1.07c-3.402 2.522-3.384 2.125-5.73-1.07z"/><path fill="#030303" d="M640.25 119.23c-2.972 5.072-7.186 6.79-10.38 1.6 2.61 1.42 2.96 2.513 4.36-.15 2.935 1.775 3.548.547 6.02-1.45z"/><path fill="#b8b8b8" d="M724.52 122.51c3.29-.06 5.97-1.89 8.02-4.35 1.83.54 3.68 1.09 5.53 1.63l-25.65 18.42c-2.68.91-5.35 1.87-8.04 2.73-2.52-1.9-5.12-3.7-7.88-5.23 2.17-1.57 4.29-3.22 6.45-4.8 5.628 2.54 7.598 2.64 9.82-3.01 3.03.31 6.4-.22 7.32-3.59 1.47-.57 2.96-1.16 4.43-1.8z"/><path fill="#fefefe" d="M251.62 163.84c-2.99-11.95-8.595-14.93-17.27-20.5.43-5.37 3.75-10.13 8.25-12.93 10.038-7.125 22.792-10.386 39.37-9.53 16.578.856 46.322 3.046 65.5 10.42 10.47 5.21 21.95 8.79 31.15 16.25-14.34-.135-18.936 12.828-23.83 24.94-2.62 10.6-2.71 21.67-2.09 32.53.4 7.42 2.71 14.54 3.83 21.85.36 2.57 1.07 5.07 1.96 7.51-1.85 2.19-2.96 5.14-5.38 6.75-6.81 2.92-14.08 4.52-21.22 6.34-11.52 2.01-23.12 4.54-34.87 3.93-8.37-1.08-16.86-1.15-25.14-2.89-11.71-2.47-23.8-3.79-34.89-8.56-.46-5.75-3.05-11.01-5.07-16.32 2.78-.82 5.52-1.74 8.27-2.67 1.59 2.2 3.98 3.79 6.74 3.95 3.55.11 6.42 3.45 10.07 2.42 2.77-.78 4.49-3.27 5.54-5.8 8.42 1.87 14.89-6.05 16.93-13.31-4.675 1.72-9.54 4.93-6.99-3.85 2.05-4.72 5.02-9.16 5.7-14.37 1.47-7.9-3.72-16.44-11.4-18.75 1.06-7.173-2.94-5.365-8.28-3.65.977-8.537-3.197-13.294-6.88-3.76zm2.98-2.38c3.31 2.68.33 7.29.03 10.66 3.49-.704 6.078-2.91 9.3-1.73-2.61 1.45-6.08 2.55-6.39 6.05 3.25-.57 6.7-2.54 9.94-.76 4.66 2.65 8.31 7.81 7.95 13.34-.11 7.42-6.5 12.82-7.26 20.06-.11 3.26 3.35 4.46 6 4.84-1.77 1.68-3.57 3.61-6.09 4.04-10.307 1.74-8.287 1.17-7.5-5.46-1.69 1.89-2.26 4.41-2.94 6.78 5.192-.756.59 5.97-2.57 4.72-4.14-2.16-8.78-2.71-13.28-3.69 3.01-2.01 5.74-4.41 8.21-7.05 6.93 2.54 13.16-4.7 13.09-11.21-1.086-7.754-1.52-10.075-9.36-8.17-.18-.56-.54-1.69-.71-2.25-2.398 4.23-5.412 7.13-9.08 9.75 2.112-7.927 3.243-8.78-1.9-14.37.7-1.52 1.39-3.05 1.98-4.61-4.85.66-9.84.6-14.47-1.2 2.43-1.61 5.68-2.99 5.13-6.52-3.89.09-7.79.72-11.68.25-12.26-.858-29.96-4.034-34.32-15.2-.676 3.908 2.314 6.03-.73 7.42-4.742-2.408-7.476-5.474-9.27-10.07-.187 6.52 4.393 9.626 9.55 12.19.9-.51 1.8-1.03 2.69-1.57.93 1.13 1.95 2.2 2.99 3.26-3.385 6.475-8.9 9.814-14.08 13.99-1.77-5.16-5.6-9.54-6.47-14.97 4.56-8.55.354-8.17-.82-14.98 4.512.387 5.897-1.798 4.33-5.84-1.3-3.11-.21-6.51.28-9.68 2.49 4.06 5.3 9.37 10.76 9.44 9.7-.24 18.29-6.45 28.07-6.25 7.69.37 15.26 2.73 21.95 6.5 6.63 3.7 10.93 10.71 12.39 18.05"/><path fill="#dadada" d="M738.31 120.06c2.12.46 4.23 1.01 6.34 1.54-1.3 1.73-2.58 3.49-3.46 5.48 2.15-1.04 3.17-3.29 4.53-5.11 2.27.81 4.55 1.61 6.85 2.39 1.587 23.228.676 41.712 6.02 62.7l-1.85.3c-1.26-2.36-1.46-5.92-4.82-6.24 1.3 1.66 2.42 3.44 3.34 5.34-2.21-1.86-3.71-5.17-7.07-4.77-.81-.54-1.61-1.08-2.4-1.62-2.032-5.162-4.625-4.64-8.22-1.8-3.086 1.413-6.717 3.028-8.71 4.58-.66-3.45-1.93-6.68-4.49-9.16-1.57-4.15-4.23-7.76-7.99-10.17l-.11-.53c-.31-1.43-.61-2.85-.96-4.27-1.77-6.85-5.33-13.33-10.93-17.78 2.69-.86 5.36-1.82 8.04-2.73 5.58-1.78 9.65-6.23 14.36-9.49 3.82-2.92 8.2-5.14 11.53-8.66z"/><path fill="#8d8d8d" d="M761.98 121.16c2.09.51 2.45 2.95 3.39 4.58 4.645-4.165 4.056-2.446 5.46 2.17 8.98-11.072 9.243-2.324 11.62 5.54 3.22-6.817 4.446-11.97 8.71-3.98 4.133-8.49 7.15 6.195 7.36 9.26 8.066-10.397 10.14-8.895 10.74 3.86 6.95-10.862 5.314-5.852 7.47 1.81 4.976-4.86 3.472-13.018 7.54-4.23 3.718-7.845 6.857-10.18 8.98-.52 6.37-12.12 5.037 5.137 4.9 9.7 7.742-13.975 13.353-18.282 14.08-2.29 4.213-7.15 5.593-6.092 7.49 1.15 4.375-4.652 8.685-9.26 7.94.73-.4 6.23-1.22 12.41-1.93 18.61-2.82 25-2.2 50.19-2.54 75.3-.92-.76-1.82-1.52-2.71-2.28-2.677-.41-2.754-2.435-3.34-4.51-3.623 4.015-7.13 6.71-6.55-1.63-4.2-.43-4.8-4.75-4.58-8.15-4.49 2.37-9.43-2.24-8.28-6.93-8.03-1.843-6.902-2.517-5.6-9.34-5.667-5.185-6.266-8.76-1.92-14.85-3.04-.94-4.51-3.51-4.9-6.53-3.16-.65-6.46-1.57-8.22-4.52 2.35-2.67 2.74-6.15 1.87-9.51 2.805-2.457 2.45-4.218-.23-6.4.61-2.13.49-4.28-.33-6.33-1.05.89-2.1 1.78-3.13 2.68-1.54-13.88-15.038-18.27-23.33-17.98-2.763 1.837-8.334 5.134-10.74 3.39-1.61-1.63-2.41-3.84-3.73-5.67-3.02-.04-3.4 4.07-4.49 6.23-1.61.48-3.18 1.06-4.67 1.79-1.09-2.067-3.01-3.107-4.76-4.26 1.288-3.4.606-2.905-2.61-3.24-.35-2.71.45-5.2 2.55-7-3.585-1.965-3.814-2.944-1.56-6.03-.68-.61-1.36-1.22-2.02-1.82-.073-3.332-1.39-7.188 2.07-8.8z"/><path d="M81.07 125.03c3.02-1.56.19 3.3 0 0z"/><path fill="#b8b8b8" d="M753.67 124.71c3.81 1.446 4.783 3.674 5.85 7.08-.92 2.39-.78 4.92 1.04 6.82-1.33 2.83-2.58 7.2 1.01 8.88.66 1.9 1.93 3.41 3.75 4.32.74.89 1.48 1.79 2.25 2.69-.32 2.19-.47 4.4-.57 6.61-1.9 3.37-1.16 7.26.94 10.33-.72 1.97-1.43 3.93-2.14 5.89-1.53.81-3.37 1.74-3.3 3.77-.51 5.79 3.22 11.06 7.69 14.38-2.285 3.857-4.41 5.023-6.96 3.29-2.51-2.35-4.67-5.81-3.95-9.38.19-.86-.4-1.58-.69-2.33-1.74-3.16-2.3-6.75-2.62-10.29.54-1.56 1.14-3.15.88-4.83-1.18-15.73-2.42-31.47-3.18-47.23z"/><path fill="#030303" d="M734.36 140.09c.91-2.85 2.48-5.55 4.9-7.39-1.13 2.74-2.54 5.51-4.9 7.39z"/><path fill="#fefefe" d="M712.46 155.6c1.15 2.29.87 4.86 2.81 6.69-.07-.97.11-2.6.04-3.57.35 1.42.65 2.84.96 4.27-2.99-.94-5.85-2.23-8.68-3.56-.97-4.69-3.63-8.78-6.34-12.64-3.89-5.54-10.91-7.36-17.21-8.56-3.46-1-6.86 1.9-10.18.29 14.304-10.773 34.242 6.55 38.6 17.08z"/><path fill="#8d8d8d" d="M85.07 141.44c2.72-1.65 5.93-2 9-2.55 11.81 6.3 23.68 12.6 34.4 20.67 21.358 17.736 4.475 18.087-13.45 20.37-14.52.9-29.18-1.78-42.59-7.35-11.71-4.59-23.3-9.68-35.56-12.67l16.86-4.37 24.48-15.89c2.27.67 4.55 1.28 6.86 1.79z"/><path fill="#fefefe" d="M669.26 140.96c3.748-1.606 6.83-2.936 4.53 1.82-2.31 1.09-3.97 2.97-4.66 5.43-3.02-.46-6.03-.89-9.05-1.17 1.06-.79 2.11-1.59 3.2-2.35.98 1.39 2.91 2.59 4.43 1.15 1.73-1.06 1.67-3.1 1.55-4.88zm6.16.97c1.7-1.27 3.81-1.71 5.84-1.02 1.51-.48 3.1-.92 4.69-.38 3.37.86 7.38 1.4 9.08 4.92 2.593-2.297 5.077 2.442 6.66 4.17-.98.02-2.93.07-3.91.1l.24-3.67c-.88 1.21-1.43 2.61-1.73 4.07-3.25 2.17-7.82.63-8.67-3.3 2.33-.29 4.45.6 6.47 1.66-.39-2.45-2.27-3.6-4.58-3.61-.69-1.59-1.08-4.06-3.43-3.39-2.23-.33-5.22 3.24-2.08 4.45-.466-4.7 4.165-2.23 3.8-.88-.06 2.38-3.21 1.9-4.78 1.65-2.82-.44-3.64-3.43-5.04-5.47.358 3.62-.405 2.46-2.56.7zm-10.08 2.85c-1.16-1.43 1.28-3.23 2.6-2.4 1.22 1.41-1.27 3.62-2.6 2.4z"/><path fill="#dadada" d="M638.77 143.05c2.605 1.458 5.806 1.813 8.39 1.82-.2.47-.6 1.42-.8 1.9 1.765-.108 2.014-2.4 5.16-3.82-.69 1.47-1.35 2.94-1.99 4.43-2.15.75-4.46 1.44-6.04 3.18-3.5 3.42-3.81 8.68-3.89 13.27-.67.22-2.01.66-2.67.88.312-2.717 1.67-4.613-.83-5.95-.644-1.934-1.23-2.776-2.95-3.76-.01-2.42-.18-4.83-.45-7.23 4.854-2.322 4.307-1.466 4.38 3.07 1.773-2.073 2.512-3.77 1.96-.12 4.234.47 3.76-1.952 4.09-5.24-2.094 3.905-1.668 4.556-2.32-.16-2.652 2.25-2.944.207-2.04-2.27zm-175.48.63c-.08 21.28-.03 42.57-.03 63.85-5.89.83-11.93 1.12-17.81.01-2.12-19.15-2.01-38.58.48-57.7 1.82-5.803 12.672-4.526 17.36-6.16z"/><path fill="#030303" d="M726.19 152.07c.72-3.26 2.89-5.97 5.36-8.11-1.32 2.97-2.94 5.89-5.36 8.11zm-390.63-4.44c2.82-2.2 6.61-4.26 10.17-2.48 2.02 1.18 5 2.09 5.3 4.81.58 2.47-.96 4.78-2.64 6.42-2.9 2.81-6.37 5.01-9.93 6.89-2.19 1.37-4.29-.52-5.97-1.76-3.15-2.52-6.76-4.57-9.32-7.75-1.79-2.11-1.09-5.84 1.48-7 3.53-1.07 8.03-2.24 10.91.87z"/><path fill="#fefefe" d="M674.24 147.09c-.86-2.15 2.24-1.94 3.45-2.49 1.83 3.08 5.18 4.45 8.69 4.03 1.63 3.75 5.87 4.94 9.54 3.54l-.2 3.01c-6.19-1.89-12.34-3.91-18.66-5.33 1.113-6.5-3.362 1.003-2.82-2.76z"/><path fill="#030303" d="M207.37 148.13c2.93-3.16 7.7-2.45 11.58-2.3 8.63 1.86 17.82 4.43 23.94 11.24 2.39 2.17 4.02 5.06 4.52 8.26-3.57-5.25-7.9-10.31-13.81-12.97-4.74-2.01-9.69-3.57-14.73-4.62-3.82-.79-7.68.16-11.5.39z"/><path fill="#fefefe" d="M671.34 148.67c-1.05-1.03.23-3.94 1.71-2.82.85 1.07-.13 4.01-1.71 2.82zm102.25 6.51c1.24-2.97 1.28-6.29 2.62-9.23 1.53 2.34 2.39 5.55 5.48 6.32-1.1.51-2.22.99-3.3 1.49 5.4 3 11.56 3.83 17.51 5.12 3.93.78 7.07 3.33 10.47 5.27-4.9-8.18-15.96-6.92-23.89-9.9-3.007-2.718 2.605-1.79 3.96-2.95 2.182-2.095 4.73-1.968 7.87-1.85-2.128.95-4.717.627-5.51 2.84 6.528.486 21.91 7.295 22.72 16.05-3.71-1.84-5.27 2.4-4.98 5.29-1.88-1.28-3.71-2.61-5.72-3.66 2.934 3.113 5.43 6.787 4.56 10.79 1.66 1.91 2.96 4.09 2.79 6.73-1.7-2.6-3.43-5.19-5.57-7.44-.4.82-.79 1.63-1.19 2.45 1.6 5.69 2.3 11.72.53 17.48-1.75-.9-3.08-2.31-4.23-3.85 2.3-4.13 2.28-8.94 1.51-13.48-1.664 4.984-2.012 26.02-7.96 12.49-3.143 3.55-3.622 2.822-7.56.91-.93.02-1.83.11-2.74.14 9.265-2.226 7.99-12.038 2.57-13.79-1.4-.62-3.51-.25-3.91-2.21-1.45 2.1-2.9 4.36-5.47 5.2.76-1.65 1.65-3.23 2.68-4.73-4.127-1.862-7.745-7.938-6.98-10.71-2.31-2.32-3.36-6.06-.65-8.52-.57-3.14-.9-6.62 1.52-9.13.6.47 1.8 1.39 2.4 1.86.17 4.56 3.16 8.56 7.13 10.63 5.84 3.43 12.4 7.38 19.38 6.63.12-1.55-1.85-1.3-2.81-1.74-9.074-2.767-19.6-5.737-23.23-14.5z"/><path fill="#f00" d="M344.9 147.78c-.89 5.13-4.93 8.9-9 11.75-4.35-2.62-8.59-5.75-11.5-9.99 3.5-.64 6.74.68 8.72 3.61 3.717-4.274 6.762-5.213 11.78-5.37z"/><path fill="#030303" d="M180.8 148.63c3.21 2.85 7.08 4.69 10.58 7.11-4.51.26-9.39-2.58-10.58-7.11zm14.45 1.31c7.28-.6 14.52 1.34 21.74 2.19 7.32.79 14.07 3.94 20.43 7.48 3.81 2.07 6.77 5.66 7.94 9.85-2.56-2.66-4.54-5.97-7.84-7.8-6.06-3.35-12.49-6.47-19.46-7.25-6.35-.83-12.71-1.62-19.06-2.41-1.56-.03-2.95-.67-3.75-2.06z"/><path fill="#fefefe" d="M629.71 150.93c.49-.27 1.49-.82 1.99-1.09-.37 2.6.49 5.72-1.69 7.72-.23-2.21-.27-4.42-.3-6.63zm22.86-.8c13.38.407 53.873 7.135 68.65 23.58-13.52 4.65-11.285 22.316-11.51 35.85-.65-.18-1.29-.37-1.91-.55 7.854-43.28-30.57-40.632-52.63-46.66-.04-1.35-.31-2.65-.79-3.9-.06 1.02-.17 3.05-.22 4.07-.68-.01-2.03-.02-2.71-.03.05-4.15-.83-8.46 1.12-12.36z"/><path fill="#030303" d="M448.15 154.73c-2.04-.78.313-5.356 2.09-4.65 1.777.706-.05 5.43-2.09 4.65z"/><path fill="#fefefe" d="M697.51 151.5c1.33-.51 2.71-.88 4.14-1.11 2.01 2.6 3.6 5.49 4.93 8.49-2.09-.72-4.14-1.49-6.23-2.17 1.09-2.91.29-3.187-2.15-4 5.09 7.26-4.07.93-.69-1.21zm-317.56.25c3.19 3.89 5.68 8.62 5.56 13.79-7.21-4.04-16.8-4.73-23.74.24 4.522-6.952 9.377-15.393 18.18-14.03zm418.68 1.4c6.54-.64 12.61 4.86 12.83 11.38-3.13-4.95-7.49-8.93-12.83-11.38z"/><path fill="#030303" d="M180.1 153.63c2.41 2.64 5.65 4.17 8.34 6.45-5.087-.277-6.812-2.264-8.34-6.45zm15.5.66c4.2.11 8.27 1.28 12.43 1.73 7.84.96 15.98 1.77 23.06 5.55 3.01 1.66 6.64 3.12 7.82 6.68-5.66-3.32-11.41-6.83-17.93-8.12-7.25-1.71-14.8-1.63-22.02-3.45-1.48-.23-2.77-.97-3.36-2.39zm579.45-.65c3.13 1.09 5.1 3.99 7.91 5.66 6.58 5.03 17.04 2.16 22.2 9.5-3.06-1.3-5.89-3.24-9.18-3.93-4.41-1.02-9.26-1.02-13.12-3.66-3.02-2.02-6.33-4.09-7.81-7.57z"/><path d="M722.32 157.92c-.37-1.4.14-1.93 1.53-1.57.35 1.41-.16 1.94-1.53 1.57z"/><path fill="#030303" d="M844.29 157.15c4.814-.88 4.19-.83 5.8 3.43.81 1.02 1.62 2.05 2.44 3.08 4.86-2.52 5.9.037 4.48 4.56-.762-6.103-.716-4.79-5.46-2.21-.73-2.39-2.57-3.59-5.01-3.67 4.148-3.245 1.41-3.65-2.25-5.19zm-652.41-.12c2.57 1.55 4.98 3.5 7.99 4.15 8.58 2.21 17.31 3.88 26.13 4.77 3.41.61 7.32.63 9.94 3.27-12.72-1.83-25.61-3.08-37.96-6.81-2.7-.81-5.19-2.63-6.1-5.38zm579.93 2.02c5.63 8.57 15.51 12.8 24.78 16.2l.68 1.65c-9.636-2.308-22.94-8.68-25.46-17.85zm-594.77 4.88c2.42 3.28 5.22 6.19 8.56 8.54-.3.24-.9.73-1.2.98-3.56-2.15-6.74-5.2-7.36-9.52zm594.15.07c4.07 4.31 8.61 8.25 13.8 11.16 3.27 1.79 7.39 2.01 10.17 4.67-7.36-.25-14.03-4.42-19.27-9.35-4.043 2.883 4.68 6.558 6.67 8.66-4.87-1.375-12.833-5.95-7.96-9.95-1.83-1.22-2.91-3.1-3.41-5.19z"/><path fill="#fefefe" d="M360.5 169.49c7.17-6.73 19.32-5.76 26.52.42 1.96 1.36.75 3.84.6 5.74-9.62-1.36-19.78-3.37-29.08.67.6-2.29.91-4.69 1.96-6.83z"/><path fill="#8d8d8d" d="M645.56 165.49c14.953-.738 37.686 5.064 48.9 12 10.01 7.57 10.617 20.44 11.29 31.03-17.016-8.622-40.888-12.85-55.35-21.92-.96-.66-1.44-1.75-2.11-2.65-.35.48-1.05 1.43-1.4 1.91.11-2.7.34-5.39.44-8.08-.83 2.34-1.31 4.78-1.88 7.2-1.52-5.5-.72-11.07.63-16.49-1.9 2.78-2.18 6.25-3.75 9.19-.01-4.23.6-8.73 3.23-12.19z"/><path fill="#030303" d="M200.74 167.16c3.88-.16 7.52 1.46 11.34 1.89 5.71 1.14 11.58.83 17.3 1.86-4.46 1.58-9.23.69-13.81.28-5.08-.65-10.4-1.25-14.83-4.03zm45.01 6.59c1.97-.94 3.32-2.73 5-4.07-1.64 4.73-6.75 7.43-11.57 7.33 1.69-1.96 4.41-2.1 6.57-3.26zm-68.1-2.01c2.48 1.63 4.64 3.76 6.2 6.3-2.73-1.3-5.05-3.46-6.2-6.3z"/><path fill="#fefefe" d="M194.88 171.57c9.273 6.616 21.242 7.542 31.5 8.22-2.838 8.034 6.672 6.822 12.56 6.99.63 4.1 3.388 5.588 4.82 9.04-7.14 12.823 2.35 8.03 9.07 1.91 6.725-1.664 8.17 13.14-3.1 9.32-4.193 12.544-20.127 14.144-30.71 14.76-14.044.218-37.997-7.387-41.78-20.06-2.03-4.65-.93-10.32 2.52-13.99 9.558-8.248 11.96-8.908 15.12-16.19z"/><path fill="#030303" d="M246.09 178.3c2.89-1.36 5.12-3.7 7.73-5.5-2.54 3.9-6.28 7.33-10.98 8.23.27-1.71 1.96-2.04 3.25-2.73zm553.56-2.94c1.63.86 3.19 1.82 4.82 2.71-.48.49-.95.99-1.41 1.5-1.16-1.4-2.35-2.75-3.41-4.21zm-546.13 1.06c.3-.05.9-.14 1.2-.19-2.79 3.85-7.02 7.19-7.13 12.34-.9-.8-1.74-1.83-1.06-3.07 1.31-3.69 4.34-6.35 6.99-9.08z"/><path fill="#fefefe" d="M768.12 174.61c2.31 2.34 3 5.99 6.21 7.43-.78 1.73-1.5 3.5-2.08 5.31 3.69.56 5.76-2.83 8.71-4.13 3.47.71 5.78 4.65 4.41 7.97-2.57 3.95-8.3-2.73-9.53 2.54-7.12.3-11.74-7.24-11.89-13.64 2.58-.71 3.76-2.95 4.17-5.48z"/><path fill="#030303" d="M45.2 176.09c1.9 2.81 1.61 6.29 1.62 9.51-2.21-2.65-1.5-6.34-1.62-9.51z"/><path fill="#fefefe" d="M715.86 181.32c4.248-6.59 9.556-4.592 10.62 1.75-3.4-1.27-6.99-1.97-10.62-1.75z"/><path fill="#030303" d="M202.23 178.77c1.74 4.65-8.803 3.368-8.32.69 2.742-.63 5.854-.993 8.32-.69z"/><path fill="#fefefe" d="M358.32 179.12c9.64-3.368 19.95-.013 28.78.25.45 3.53 1.17 7.28.13 10.76-9.615 5.986-20.118 2.918-29.84 3.22.17-4.75.26-9.52.93-14.23zm379.61 2.69c1.676-5.847 5.334-5.258 6.53-.28 1.09.81 2.35 1.51 2.89 2.88 2.327-.593 2.904.744 4.01 2.32 1.16-.19 2.32-.37 3.5-.55.15.71.44 2.14.59 2.85.69-.07 2.06-.2 2.75-.27-1.62 3.97 1.12 7.67 3.46 10.65-1.62.23-3.24.5-4.84.8-2.426-3.27-2.212-6.817-5.06-9.21-3.54-.147-8.154-4.048-1.03-1.83-1.5-4.19-1.964-4.22-5.04-1.27-.29 1.84 1.56 2.89 2.36 4.31-2.33 1.48-5.33 2.52-8.02 1.46-3.6-1.28-7.01-3.05-10.63-4.28-.13-2.19-.34-4.36-.54-6.54l.42.15c2.07.28 2.958-.174 4.64 1.01 1.22-3.583.777-4.774 4.01-2.2z"/><path fill="#030303" d="M248.75 190.77c1.24-4.59 3.59-8.9 6.94-12.28-1.6 3.88-4.11 7.36-5.19 11.46-.44.2-1.32.61-1.75.82zm11.36-12.02c2.86.58 2.73 4.04 2.79 6.31.18 2.34-1.04 4.36-2.28 6.22 1.16-4.18.88-8.45-.51-12.53zm-52.93 5.27c-.03-2.03.51-3.87 2.67-4.47 2.64 2.25 5.51 4.2 8.43 6.07-3.49 2.1-7.71-.17-11.1-1.6zm50.31-4.61c2.5 3.93 2.06 10.62-2.51 12.88 2.51-3.88 2.81-8.38 2.51-12.88zm7.8.33c2.53 4.7 3.91 12.1-1.23 15.59.55-1.79 1.42-3.47 1.95-5.26.35-3.46-.64-6.88-.72-10.33z"/><path fill="#b8b8b8" d="M500.74 185.56c7.34-6.723 22.103-4.103 21.64 6.51-1.05 2.96-5.18 3.77-5.77 6.96.36 7.07 2.09 14.41.13 21.37-1.59-7.58-.42-15.47-2.2-23.01-2.12-6.17-8.56-8.88-13.8-11.83z"/><path fill="#030303" d="M792.91 196.03c-.02-5.06 1.53-10.12 4.38-14.3-1.6 5.06-3.38 10.17-3.03 15.58-.34-.32-1.02-.96-1.35-1.28zM48.6 182.86c1 1.96 1.29 4.14.84 6.31-1.25-1.88-1.1-4.17-.84-6.31zm222.06-.23c2.3 6.18.64 13.9-3.77 18.74.69-3.6 2.83-6.76 3.33-10.42.45-2.75.28-5.55.44-8.32z"/><path fill="#fefefe" d="M715.52 183.36c3.75-.64 7.52.01 11.05 1.33.24 2.74.49 5.48.71 8.23-3.94-2.44-8.49-3.33-13.04-3.67.36-1.97.79-3.94 1.28-5.89z"/><path fill="#030303" d="M737.96 183.37c1.67.17 3.5-.27 5.11.36 1.348 1.904.127 7.81-.55.84-3.95.808-6.686 5.048-4.56-1.2z"/><path fill="#fefefe" d="M802.6 183.84c.43-.36.88-.72 1.33-1.07 1.56 3.71 4.07 9.02.61 12.36-.37-3.79.12-7.9-1.94-11.29z"/><path fill="#030303" d="M789.95 183.83c2.18 3.22 1.51 7.85-1.45 10.33.96-3.38 1.55-6.81 1.45-10.33zm-597.73 8.39c-2.177-1.063 3.213-8.77 4.83-7.72 1.617 1.05-2.653 8.783-4.83 7.72zm540.41-5.24c.8-1.1 2.07-1.34 3.34-1.37-1.725 2.43-1.593 4.366-3.34 1.37zm48.75-2.53c2.42 1.51 1.89 4.35.35 6.29-.632-2.144-3.238-4.413.06-3.13-.1-.79-.31-2.37-.41-3.16z"/><path fill="#b8b8b8" d="M814.93 191c-.96-2.1.08-4.21.96-6.12 1.56 3.39 5.02 4.73 8.41 5.54-.88 5.33-4 9.83-6.49 14.51 2.014-2.643 2.652-1.315 4.59.74 1.69-3.18 2.98-6.57 3.75-10.1-3.197 3.593-2.106 10.2-5.25 6.38 1.08-2.86 2.51-5.58 3.48-8.48.92 1.06 1.85 2.14 2.81 3.2-1.83 2.81-1.47 6.15-1.33 9.32-.83 2.24-2.37 4.14-3.48 6.25.03.6.09 1.8.11 2.4.34-.25 1.02-.76 1.36-1.01 2.38 8.386 3.305.35 4.47-3.65.47.26 1.4.78 1.87 1.04-1.02 2.57-1.19 5.31-.24 7.93-.37 1.36-.74 2.72-1.07 4.09.98-1.31 1.97-2.63 3.18-3.75-.15 3.69-1.46 7.29-3.58 10.3-.01-.81-.05-2.43-.07-3.25-4.48-.202-3.315.754-2.79 4.39 2.312-.933 1.98-.044 1.83 2.03 3.25-3.148 2.367-.68 2.48 2.45 3.414-4.745 2.123-.52 2.07 2.31 2.264-2.263 2.102-2.863 3.03.29.636-1.243 1.424-1.836 2.63-2.41 1.43-7.92-.883-7.66 6.51-5.77.4 2.09 1.08 4.13 1.98 6.07.66.15 2 .46 2.66.61-1.712 5.946 2.124 11.327-3.35 6.97.44-2.37 2.29-4.88.77-7.22-.82 2.66-1.59 5.33-2.29 8.01-2.614-3.79-2.378-.652-2.9 2 2.322-2.745 1.988-1.923 2.48 1.06 1.32-1.18 2.43-2.61 3.35-.08 1.77-1.84 3.36-.44 4.89.84-.41-1.71-.72-3.66-2.73-4.15-.01-.72-.03-2.16-.03-2.87 2.16.83 4.33.52 6.39-.52-.34 1.35-.6 2.72-.88 4.08 2.17.545 1.17-3.084 1.16-4.38 1.27.9 2.59 1.76 3.95 2.54.962 1.487 1.948 1.618 3.59 1.81 0 3.15-.04 6.31-.25 9.47l-41.49-13.02c.19-16.245 1.512-22.38-12.16-31.17-2.604-7.51-2.044-6.18 2.78-10.61 12.51 1.126 7.696-3.015 2.84-8.07z"/><path fill="#8d8d8d" d="M488.15 185.98c7.51-.82 13.963 4.164 20.3 7.59 6.337 3.426 4.885 18.61 7.06 27.16-8.13 3.77-18.2 1.44-25.13-3.9-.11-4.6-1.87-9.09-5.98-11.5-.63-6.53-.89-14.11 3.75-19.35z"/><path fill="#030303" d="M205.12 194.27c-1.15-1.03 2.203-7.03 3.8-6.15 1.597.88-2.65 7.18-3.8 6.15zm535.82-2.28c-1.07-1.4 1.51-2.6 2.4-1.43 1.04 1.38-1.52 2.46-2.4 1.43zm103.69 7.2c-2.22-3.02-.64-6.35 1.02-9.18-.768 6.726-3.31 7.905 3.46 5.93-4.373 4.848-1.414 4.53 2.61 8.06-5.875.344-2.76 4.123-.15 6.12-1.1.16-2.4.55-3.28-.41-1.52-1.54-.83-3.79-.69-5.69-1.42-1.33-2.42-2.97-2.97-4.83z"/><path fill="#fefefe" d="M714.23 190.84c4.59.51 8.92 2.08 13.03 4.14.03 1.52.06 3.04.12 4.56-4.44.04-8.96-.09-13.14-1.73zm15.29-.52c1.08.76 2.14 1.55 3.18 2.39-.16 3.93-.66 7.85-.37 11.79 1.804-2.327.91-6.75 1.4-11.79.5.37 1.5 1.11 1.99 1.48-.06 3.79-.69 7.56-.53 11.36-1.56.15-3.12.28-4.66.41-1.17-5.13-.8-10.42-1.01-15.64z"/><path fill="#b8b8b8" d="M543.08 198.97c2.69-10 19.69-8.11 20.57 1.99 1.36 4.61-3.46 7.1-4.75 10.94 2.99 6.63 3.34 15.64 2.72 22.79l-1.79 1.81c-1.24-7.5-1.98-15.07-2.49-22.65-.77-8.983-6.79-12.053-14.26-14.88z"/><path fill="#fefefe" d="M749.3 194.29c.22-.43.66-1.3.89-1.73l.08 2.34 1.06-.47c.89 2.3 1.97 4.52 3.32 6.59-1.2.8-2.36 1.62-3.51 2.47.14-2.74.22-5.47.29-8.2l-1.17-.2c-.16 3.23.08 6.5-.56 9.69-1.31 3.31-2.86 6.6-2.77 10.27-.47-.78-.92-1.57-1.34-2.36.43-1.59.49-3.18.17-4.77-.97-3.35.36-6.79-.37-10.18-.81 1.98-1.24 4.08-1.59 6.18-.59.54-1.76 1.62-2.35 2.17.81.62 1.66 1.19 2.53 1.77-.13 1.56-.24 3.14-.35 4.71-.84.31-1.67.63-2.49.94 0-2.07.18-4.19-.63-6.14.66-3.65.88-7.35 1.16-11.03 2.57-.55 5.06-1.44 7.63-2.05z"/><path fill="#030303" d="M195.23 197.69c.6-1.49 1.33-2.93 2.19-4.29.07 1.01.22 3.03.3 4.04-.84.09-1.67.17-2.49.25z"/><path fill="#fefefe" d="M386.01 193.57c2.492 6.297 1.42 14.7-5 16.06-7.59.78-15.41 0-22.65-2.45-.5-3.86-.77-7.75-.85-11.64 11.892.76 18.092 2.482 28.5-1.97z"/><path d="M837.36 194.36c1.48-1.35 2.36 1.47 1.13 2.26-1.49 1.36-2.39-1.48-1.13-2.26z"/><path fill="#fefefe" d="M736.73 194.49c1.25.52 2.52 1.03 3.8 1.53-.41 3.09-.76 6.2-.98 9.31-.83-.01-2.49-.05-3.32-.07.25-3.59.46-7.18.5-10.77zm34.316 1.31c2.94.51 5.094.08 8.064-.25.11.58.32 1.75.43 2.33 3.86-.07 7.31 3.19 11.11 1.21 1.148 3.79 4.507 1.568 6.36-.25 1.4 1.76 3.53 3.77 5.83 2.05 1.45-1.13 2.32-.02 3.09 1.3-13.687.08-29.332-.464-34.884-6.39z"/><path fill="#030303" d="M748.37 195.13l1.02.04c-.7 3.75.14 8.07-2.31 11.29.1-3.8.81-7.56 1.29-11.33zm-299.57 5.85c1.36.575.575 3.242-1.23 2.7-1.805-.542-.13-3.275 1.23-2.7z"/><path fill="#fefefe" d="M714.26 199.61c4.23 1.34 8.74 1.51 13.08.57 1.505 10.348-4.41 8.843-12.98 6.9z"/><path fill="#8d8d8d" d="M524.74 209.02c5.11-13.316 28.058-3.25 29.07 3.93 1.11 8.19 1.28 16.51 3.08 24.6-6.14 2.55-13.29.94-18.28-3.26-4.73-7.045-4.636-7.9-13.22-8.67-.64-5.49-1.68-11.09-.65-16.6zm234.35-7.28c16.586-.718 37.285 4.82 50.57 11.64 3.564 3.566 2.31 15.055 1.35 21.63-.1 1.15-.7 1.97-1.8 2.46.32-7.46 2.74-15.8-1.73-22.5 1.66 7.05.57 14.26-.75 21.26-1.06-.31-2.11-.63-3.16-.94 1.37-4.1 2.49-8.35 2.2-12.71-2.23 4.23-.6 10.882-5.19 12.37.48-2.09 1.01-4.16 1.38-6.28-.98 1.72-1.79 3.51-2.57 5.32-17.29-4.37-34.99-7.01-52.08-12.2.51-8.877 1.87-18.992 11.78-20.05z"/><path fill="#030303" d="M207.56 208.84c.33 3.1-3.34 3.67-5.63 3.43-13.502-5.175-2.2-12.714 5.63-3.43zm58.46-4.28c.02 3.91-1.22 7.9.68 11.61-1-.52-2.45-.76-2.52-2.15-.47-3.24.22-6.62 1.84-9.46z"/><path fill="#fefefe" d="M197.89 206.34c2.97.45 6.32.93 8.2 3.58-3.29 1.06-6.61-.63-8.2-3.58zm530.6.3c.45.39 1.36 1.17 1.82 1.56-3.288 8.733-9.143 5.75-15.59 2.93l-.69-1.98c8.4 1.894 9.046 3.224 14.46-2.51zm2.59 1.57c.82-.13 2.46-.4 3.28-.53.52 2.91.506 7.475-.144 10.385 3.207-2.342 1.886-7.832 1.374-10.885 5.13-.13 4.62 7.57.91 9.27-2.95 2.3-6.36-.84-9.4-1.41 2.06-1.79 3.85-3.97 3.98-6.83zm95.64-1.09c1.73 2.52-.74 5.04-1.41 7.47-2.46-2.48-.02-5.17 1.41-7.47z"/><path fill="#b8b8b8" d="M482.9 208.85c8.148 5.004 3.918 9.866 2.07 15.75 5.85 8.09 2.54 18.56 3.94 27.75l-3.32-.76c-1.01-7.33.5-14.86-1.32-22.1-2.58-6.57-.92-13.78-1.37-20.64z"/><path fill="#fefefe" d="M386.28 210.03c.71 4.8.55 9.74-.82 14.41-7.63 3.72-16.02.96-23.79-.66-.69-4.54-1.7-9.01-2.79-13.46 12.603 3.802 22.08 4.364 27.4-.29z"/><path fill="#b8b8b8" d="M590.01 218.13c4.34-4.35 11.04-4.07 16.53-2.48 3.86 1.14 5.56 5.63 5.22 9.34-1.16 3.15-6.37 4.04-5.67 7.99.74 6.45 1.23 12.94.72 19.43l-.95.16c-1.994-23.02 2.39-23.466-15.85-34.44z"/><path fill="#fefefe" d="M745.21 213.83c1.61 2.22 1.16 4.93 1.1 7.51-2.13-.76-4.25-1.51-6.35-2.3 2.61-.87 5.6-1.65 5.25-5.21z"/><path fill="#030303" d="M253.58 215.73c-.3 1.54-.71 3.04-1.09 4.56-.86-.61-1.69-1.24-2.52-1.88l-1.32 1.71c.23-1.97 1.98-3.76 3.34-1.52l1.59-2.87zm1.39 5.86c-.38-2.29.33-4.55 2.06-6.1-.39 2.12-.88 4.26-2.06 6.1z"/><path d="M460.21 216.9c1.65.46 1.33 3.61-.19 4.09-1.68-.53-1.26-3.49.19-4.09z"/><path fill="#8d8d8d" d="M576.81 219.75c8.263-3.92 24.586 7.038 25.76 14.29.91 6.53.74 13.2 2.33 19.63-8.33 3.59-18.34 1.22-25.37-4.14.35-4.68-1.81-9.01-5.76-11.51-.61-6.14-.76-13.05 3.04-18.27z"/><path fill="#fefefe" d="M833.54 220.86c.58.15 1.76.44 2.34.59-1.36 3-2.27 6.16-3.33 9.27-.47.31-1.41.94-1.87 1.25-.51-3.99 2.25-7.29 2.86-11.11zm-614.64 4.48c3.7-.11 7.34-.83 11.02-1.17.3.38.9 1.15 1.21 1.54-6.1 1.75-12.62 1.5-18.87.91 1.88-1.56 4.4-1.05 6.64-1.28z"/><path fill="#b8b8b8" d="M632.54 231.78c2.39-8.74 15.96-8.61 19.7-1.01 1.19 2.78 1.65 6.47-.6 8.85-1.17 2.03-4.28 3.98-2.85 6.62 2.092 6.755 4.923 17.644.63 23.24-2.553-10.23-1.128-21.89-4.25-29.49-3.18-4.05-7.93-6.39-12.63-8.21zm200.44 2.73c1.37-3.09 1.34-6.83 3.27-9.62.46.57 1.39 1.72 1.86 2.29-.71 2.22-.67 4.84-2.27 6.66-.71.17-2.14.5-2.86.67z"/><path fill="#fefefe" d="M362.16 227.03c8.05 2.31 15.354 2.876 22.9.63.46 3.18-.36 6.46-2.07 9.16-3.39 3.28-9.05 3.33-12.88.8-3.71-2.56-6.46-6.35-7.95-10.59z"/><path fill="#b8b8b8" d="M517.46 229.67c8.786-2.267 15.96-2.182 17.88 7.35.7 2.88-2.16 4.58-3.8 6.44-2.06 1.6-.91 4.35-.79 6.49.87 5.04-.06 10.27 1.48 15.2l-2.03 1c-1.966-19.123 2.425-23.578-15.01-33.67-.66-1.58 1.2-2.18 2.27-2.81z"/><path d="M797.16 229.33c1.52.08.84 2.49-.36 2.59-1.55-.07-.87-2.5.36-2.59z"/><path fill="#030303" d="M842.89 229.38c.04 2.92-.57 6.15-2.96 8.08.59-2.82 1.74-5.48 2.96-8.08z"/><path fill="#fefefe" d="M185.94 234.15c.53-1.43 1.05-2.87 1.58-4.3 6.77 4.12 14.86 4.88 22.58 5.5 7.48.21 15.68.64 22.15-3.8.54 2.22 1.12 4.44 1.69 6.66-4.94 1.21-9.85 2.95-15.02 2.61-8.03-.5-15.94-2.13-23.84-3.6-3.18-.58-6.05-2.18-9.14-3.07z"/><path fill="#8d8d8d" d="M498 260.01c.32-9.27-.82-25.59 4.01-26.17 22.126-.55 28.282 13.172 25.27 32.96-4.46 1.83-9.69 3.13-14.32 1.2-5.056-6.177-4.58-7.397-14.96-7.99zm116.39-19.05c2.87-9.918 24.224-5.943 28.68 4 1.34 8.41 1.33 17.02 3.26 25.34-6.63 2.94-14.3.59-19.48-4.1-2.686-5.606-6.02-7.343-11.92-7.7-.85-5.78-1.93-11.77-.54-17.54z"/><path fill="#b8b8b8" d="M556.87 245.5c2.49-8.86 16.62-8.49 19.93-.45 1.84 7.502-1.133 7.725-4.13 12.95 2.467 7.106 3.455 14.507 3.05 21.57l-2 2.33-2.89-23.78c-.64-7.15-8.27-10.12-13.96-12.62z"/><path fill="#dadada" d="M232.31 243.63c1.01-.59 2.03-1.18 3.04-1.77 1.37.71 2.73 1.42 4.11 2.13-.38 6.95-.3 13.92-.26 20.89-2.9-.01-5.79 0-8.69.04 2.11-6.88 1.72-14.18 1.8-21.29z"/><path fill="#fefefe" d="M361.46 253.04c-1.4-3.9.67-7.71 3.47-10.33 5.11 2.778 5.486 8.244 4.18 12.52-2.59.14-6.2.51-7.65-2.19zm17.84-8.01c1.71-.94 3.38-1.96 5.05-2.99 2.335 5.625 2.405 13.28-5.03 12.58-1.028-3.647-1.183-6.377-.02-9.59z"/><path fill="#030303" d="M857.23 242.82c.82 2.26 1.7 4.5 2.68 6.7-1.933-1.802-2.656-1.92-4.58-.61 1.864-2.01 1.997-3.444 1.9-6.09z"/><path fill="#fefefe" d="M189.53 243.53c11.21 3.37 23.24 4.52 34.86 3.04l-.52 3.75c-11.47 2.31-23.45 1.17-34.51-2.51.05-1.43.11-2.85.17-4.28zm37.91.88c1.25-.05 2.49-.12 3.74-.2-.97 7.32-.71 14.87-3.03 21.95-1.1-1.96-3.18-3.71-2.95-6.16.03-3.96.16-7.91.5-11.85.65-1.21 1.22-2.47 1.74-3.74zm13.13.01c11.46 4.44 23.68 6.42 35.72 8.58-7.32 1.86-14.98 1.08-22.41.41-4.43-.36-8.6-1.96-12.69-3.6-.2-1.8-.4-3.6-.62-5.39zm129.02 1.1c2.5.14 5.01.24 7.52.33-3.586 3.673-4.235 2.774-7.52-.33z"/><path fill="#b8b8b8" d="M678.3 255.29c6.983-9.96 20.917-12.925 22.18 1.69.24 2.71-4.3 4.47-2.67 7.18 4.97 8.02 1.72 17.78 3.5 26.54l-3.61.02c-1.892-9.818 3.07-21.822-5.26-28.09-4.32-3.15-9.38-4.99-14.14-7.34z"/><path fill="#8d8d8d" d="M539.66 252.71c8.442-7.193 26.152-1.908 27.84 6.36 1.02 7.67 1.41 15.42 2.64 23.07-4.72.7-9.76 1.89-14.38.14-4.597-5.677-4.315-12.202-16.97-11.38-.3-5.99-1.98-12.59.87-18.19z"/><path fill="#fefefe" d="M299.53 255.3c12.41-.98 24.99-1.94 36.93-5.69 1.81 2.34 2.3 6.7-1.35 7.46-11.34 3.77-23.87 3.79-35.31.34-.07-.53-.21-1.58-.27-2.11zM241 251.16c5.89 4.7 13.69 5.49 20.96 5.74 5.85.3 11.76-.15 17.41-1.76-.35 3.1.37 6.52-.73 9.45-7.18 4.11-15.71 3.54-23.65 2.96-4.57-.31-9.01-1.59-13.31-3.15-.35-4.41-.42-8.83-.68-13.24z"/><path fill="#dadada" d="M282.17 253.7c5.25.49 10.48 1.1 15.72 1.6-.04 3.62-.03 7.24-.03 10.87-5.19.29-10.4.43-15.6.36.23-4.28.13-8.56-.09-12.83z"/><path fill="#8d8d8d" d="M663.02 255.91c8.073-.03 29.922 6.68 30.97 15.03 1.13 7.88.29 15.89 1.35 23.79-8.27-.492-19.585 0-24.99-6.06-3.583-6.347-3.12-9.275-10.01-12.04 1.264-5.248-2.962-18.453 2.68-20.72z"/><path fill="#fefefe" d="M188.65 256.95c11.04 4.24 23.13 2.86 34.6 1.64l-.12 3.67c-5.58 1.43-11.38 1.96-17.12 1.49-5.85-.57-11.92-1.1-17.07-4.22zM300 260.04c10.39 3.65 21.79 3.86 32.4 1.09 1.88-.54 3.68-1.66 5.72-1.44 1.41 2.37 1.45 5.54.53 8.07-5.2 2.49-11.01 3.56-16.75 3.73-7.28.13-14.19-2.6-21.39-3.15-.16-2.77-.34-5.53-.51-8.3zm-115.61.88c12.4 6.02 26.74 7.4 40.16 4.37.86 1.47 1.77 2.91 2.69 4.34-.28 2.79-.34 5.6-.76 8.38-.21 1.19-.89 2.76-2.32 2.75-4.91.59-9.66-1.13-14.25-2.63l-1.1-4.91c-3.22-.79-6.26-2.1-9.27-3.44.46 1.85 1.6 3.36 3 4.61l-2.09 2.19c-6.03.97-12.2-1.25-16.51-5.48-.36-3.4.11-6.81.45-10.18z"/><path fill="#b8b8b8" d="M602.85 269.31c2.08-6.78 10.37-10.35 16.86-7.9 9.81 5.432 1.655 14.645 2.41 16.43 4.72 7.86 2.26 17.37 3.22 26.01l-3.45-.11c-1.803-8.11 3.037-20.616-3.53-26.05-4.5-3.88-10.13-6.05-15.51-8.38zm-111.86-5.47c3.91-2.22 8.74-1.68 12.97-.84 4.53.73 6.8 5.86 6.14 10.02-1.44 2.01-3.7 3.22-5.26 5.12-.52 6.613.428 14.238.77 20.28l-1.54-.02c-.72-6.68-.26-13.48-1.56-20.09-1.78-6.16-8.05-8.92-13.1-11.89-1.25-1.32.71-1.91 1.58-2.58zm-388.38 1.83c7.82-.02 15.63-1.2 23.44-.41 8.31.71 16.59-.62 24.89-.58 10.44-.26 20.84 1.23 31.29.88-.18 2.79-.88 5.67-.17 8.43 1.13 1.54 2.61 2.77 3.92 4.16.494 6.855-1.007 14.096-1.08 20.02-.45.23-1.36.7-1.81.94-14.908 6.085-17.677 3.38-18.99 20.57 23.818 5.62 104.73-6.193 112.75-2.08 22.594 2.533 62.73 12.63 66.91-26.8-.34-1.65-1.02-3.15-2.32-4.25 2.33-6.09 2.81-12.64 2.74-19.1 3.26-.675 3.882-.218 4.55 3.14 13.116.288 24.54.252 35.84.77l72.28-3 6.4.4c-.02 19.34.03 38.68-.03 58.02-153.63-.06-307.26-.03-460.9-.01.02-5.75.03-11.5.35-17.24 31.76 28.858 117.272-8.62 100.37-18.42-.41-8.47-.37-16.96-.43-25.44zm127.9-.75c2.9-.04 5.79-.05 8.69-.04.16 6.19.82 12.49 4.01 17.94-1.09 1.08-2.3 2.04-3.5 3.01-5.71-1.99-12.124-.63-17.744.98l-.086-2.27c2.05-1 4.67-1.64 5.76-3.88 2.07-3.82 1.29-8.36 2.19-12.49.21-1.09.44-2.17.68-3.25zm508.91 2.55c3.36 3.93 3.04 9.55 2.34 14.35-5.44-3.29-11.53-5.27-17.75-6.4 1.54-8.1 10.077-12.393 15.41-7.95z"/><path fill="#fefefe" d="M241.94 267.03c7.74 3.93 16.62 4.11 25.11 3.74 4.18-.19 8.05-1.92 11.83-3.55-.37 3.48-.7 6.98-1.21 10.45-10.63 4.55-22.69 2.87-33.25-.94-1.62-2.98-1.94-6.41-2.48-9.7z"/><path fill="#8d8d8d" d="M381.71 267.84c-.58 1.09-1.17 2.17-1.76 3.26l-21.5 1.06c-3.25-.49-6.5-.97-9.72-1.57l-.43-2.16 5.58.12c-.09.52-.28 1.56-.37 2.09l4.54-3.06m39.94.3l-1.68 3.08c2.91-2.25 6.28-3.83 9.99-2.68 11.89-1.13 23.88-1.15 35.82-.89 4.93.58 9.97-.8 14.77.96l-1.03.25c-1.77.44-3.56.76-5.35 1.1-2.464 3.948-2.607-.328-5.5-.12-6.4-.43-12.61 1.62-18.97 1.82-5.23.17-10.47.32-15.7.4.96-.34 3.18-1.12 2.37-2.51-1.52-.84-3.46.87-3.08 2.49-7.61-.28-15.23.02-22.83-.34.68-.87 1.33-1.77 1.99-2.67-1.43.83-2.83 1.7-4.22 2.59-1.55-.07-3.09-.17-4.62-.26m103.03-4.28c6.47 2.87 14.22 5.71 17.39 12.57 1.62 7.08 1.68 14.47 2.17 21.71-8.528 1.713-12.282-1.01-19.67-2.76.09-10.51-.12-21.02.11-31.52zm-117.9.73c-2.23 1.51-4.5 2.96-6.63 4.61"/><path fill="#b8b8b8" d="M282.15 268.8c5.3-.02 10.59-.4 15.87-.76-.05 5.32.99 10.55 1.4 15.83-.03.59-.1 1.77-.13 2.36-4.67.71-9.36-.19-13.97-.87-.26-.17-.79-.51-1.05-.68-1.52-1.11-3.16-2.03-4.85-2.84 1.61-4.17 2.26-8.62 2.73-13.04z"/><path fill="#030303" d="M367.45 272.55c.81-2.71 3.62-3.41 5.96-4.28.03.47.08 1.4.11 1.87-2.03.8-4.03 1.65-6.07 2.41zm17.12-1.19c1.39-.89 2.79-1.76 4.22-2.59-.66.9-1.31 1.8-1.99 2.67l-2.23-.08zm25.06.42c-.38-1.62 1.56-3.33 3.08-2.49.81 1.39-1.41 2.17-2.37 2.51l-.71-.02z"/><path d="M420.12 269.15c3.32.02-1.43 3.05 0 0z"/><path fill="#030303" d="M224.04 273.68c-1.98.93-3.3-3.16-.99-3.35 1.38.26 1.89 2.37.99 3.35z"/><path fill="#fefefe" d="M300.72 270.58c5.95 2 12.09 3.6 18.37 4.07 6.3.42 12.53-1.15 18.39-3.32.64 2.21.86 4.5.79 6.8-11.31 5.3-24.12 3.89-35.98 1.53-.69-3-1.11-6.05-1.57-9.08z"/><path fill="#8d8d8d" d="M587.02 269.7c8.843-1.153 26.954 7.1 30.91 13.35 1.8 7.84.38 16.01 1.72 23.92-5.71-3.56-12.94-2.45-18.86-5.64-3.817-10.122-7.365-9.88-17.17-7.47.992-6.782.606-21.14 3.4-24.16z"/><path fill="#b8b8b8" d="M530.81 279.27c2.38-7.19 12.41-8.41 17.62-3.67 2.84 2.21 3.49 6.08 3.02 9.46-1.3 2.51-3.44 4.46-4.76 6.96 3.634 7.527 2.372 16.212 3.9 23.54l-3.05.3c-1.25-7.04-1.85-14.17-2.34-21.3-.236-8.56-7.7-12.47-14.39-15.29zm-326.63-4.35c.64.12 1.92.35 2.56.46.42 1.77.44 3.71 1.36 5.33 1.43.78 2.99 1.27 4.51 1.86-.73 4.47-1.08 8.98-1.33 13.5l-15.48 3.63c-.32-.46-.97-1.38-1.29-1.84.66-5.32 1.21-10.65 1.71-15.98 1.96-.4 4.24-.37 5.78-1.86 1.4-1.33 1.6-3.36 2.18-5.1z"/><path fill="#fefefe" d="M194.37 281.6c-1.25 5.4-.84 11.06-2.3 16.41-.51 2.42-3.11 1.25-4.8 1.3-.35-6.28.05-12.58.53-18.84z"/><path fill="#8d8d8d" d="M712.6 279.6c14.56-3.808 31.353 3.79 34.08 18.24.72 4.57.46 9.22.17 13.82-9.012.41-15.815 1.583-24.08-1.52-4.235-3.78-7.647-5.584-12.97-6.5-.19-5.21.21-10.43-.36-15.62-.28-3.06-.3-7.15 3.16-8.42z"/><path fill="#b8b8b8" d="M652.39 281.29c3.25-2.31 8.25-2.89 11.37-.05 3.42 3.93 2.88 9.56 2.43 14.38-5.49-3.27-11.59-5.34-17.87-6.43.97-2.76 1.26-6.28 4.07-7.9z"/><path fill="#fefefe" d="M247.58 280.5c6.33 1.6 12.82 3.18 19.4 2.53 3.53-.38 6.82-1.81 10.25-2.64-2.54 4.21-7.46 6.46-12.27 6.49-6.27-.15-12.69-2.04-17.38-6.38zm55.72 1.68c10.56 2.98 22.02 3.55 32.42-.38l1.91 2.07c.49 6.75-7.22 8.93-12.58 8.25-4.57-.79-9.19-1.46-13.66-2.74-3.42-1.36-6.05-4.21-8.09-7.2zm-89.43.72c2.07.44 4.16.78 6.26 1.1-.493 5.8-1.13 11.79-1.53 16.78-1.08 2.34-3.93.67-5.37-.42.26-5.82.39-11.64.64-17.46z"/><path fill="#8d8d8d" d="M513.65 286.69c4.55-5.18 12.92-5.12 18.74-2.21 3.25 1.92 7.21 3.62 8.88 7.24 1.78 9.06 1.26 18.5 3.88 27.41-5.8 3.48-11.67-1.03-16.83-3.54-1.15-3.49-1.74-7.71-5.15-9.8-3-2.27-6.9-2.31-10.48-2.17-.17-5.58-1.67-11.71.96-16.93zm-291.72.19c5.62-1.61 12.07-3.04 17.78-1.05-2.91 3.36-7.89 4.28-10.16 8.24-.47 1.6.11 3.29.51 4.84 8.47 4.25 17.24 7.98 26.17 11.18 1.77-.8 3.54-1.64 5.06-2.86 6.65-5.39 14.4-9.13 21.25-14.23-.51-.45-1.02-.89-1.53-1.32-3.84 3.43-8.62 5.47-12.81 8.4-3.6 2.39-6.72 5.42-10.44 7.64-.45-3.76 3.5-4.5 6-5.9 6.77-3.06 12.92-7.43 18.12-12.73.76.88 1.53 1.76 2.33 2.62.06-2.35.07-4.69.06-7.03.26.17.79.51 1.05.68 4.61.68 9.3 1.58 13.97.87.03-.59.1-1.77.13-2.36.48 1.34.95 2.68 1.42 4.02-6.59 5.95-13.63 11.43-19.94 17.68.49 2 .7 4.08 1.4 6.04 3.52 2.03 7.69 2.39 11.43 3.91 5.46 2.21 11.29 3.7 17.22 3.71 2.73.06 4.94-1.7 7.12-3.09 7.71-5.22 15.41-10.52 22.56-16.49 3.03-2.07.53-6.72 3.13-8.85 8.98-.893 30.01-1.12 28.74 10.77-.95 4.89-5.03 8.38-9 10.99-8.39 4.86-18.29 5.45-27.66 6.88-7.91 1.51-15.69 4.05-23.83 4.02-8.1-.04-16.26.03-24.29-1.17-4.04-.49-7.19-3.25-10.87-4.69-3.95-.64-7.84.86-11.79 1-3.98.33-7.92-.79-11.88-.5-4.07 1.16-7.83 3.46-12.16 3.61-10.02.62-20.04 1.87-30.09 1.11-15.6-.88-31.61 1.37-46.83-3.14-4.29-.86-6.7-6.03-5.35-9.98 1.78-3.12 4.9-5.22 7.93-7 5.01-2.84 10.94-2.41 16.41-3.59-.44.92-.87 1.84-1.32 2.76-2.45.42-5.07.34-7.37 1.4-3.31 2.07-5.51 6.5-3.96 10.31 1.34 2.79 4.65 3.71 7.5 3.83 5.16.3 10.93.16 15.08-3.36 2.68-2.2 5.7-5.26 4.81-9.08-.84-1.19-1.9-2.2-2.88-3.26.26-.69.55-1.36.85-2.01 3.87-4.4 10.27-3.28 15.48-3.63-.08 1.29-.17 2.58-.25 3.88-2 2.68-4.57 5.51-4.45 9.07.02 2.66 1.72 5.09 4.04 6.31 7 3.91 16.59 3.44 22.56-2.16 2.59-2.2 1.92-6.8-.87-8.48-2.8-.86-5.75-1.11-8.53-2.05-.79-1.17-1.6-2.31-2.45-3.42z"/><path fill="#fefefe" d="M233.3 293.32c4.48-2.25 8.01-5.87 11.55-9.33 4.82 4.68 11.34 7.4 18.05 7.56 5.39-.29 10.7-2.58 14.45-6.49 1.22.52 2.43 1.05 3.65 1.61-6.94 7.02-15.6 12.25-24.8 15.75-7.48-3.44-15.45-5.6-22.9-9.1z"/><path fill="#030303" d="M398.98 292.88c-1.756-2.79 5.184-4.014 6.35-1.87 1.166 2.144-4.594 4.66-6.35 1.87z"/><path fill="#fefefe" d="M285.43 304.35c5.68-4.63 11.02-9.66 16.17-14.86 4.61 6.01 12.53 7.43 19.51 8.85 5.39 1.08 10.85-.95 15.19-4.09 1.74-1.36 2.64-3.71 4.86-4.44-1.75 3.54-4.86 6.14-8.1 8.28-6.67 4.43-13.6 8.47-20.01 13.29-9.2-2.4-18.5-4.34-27.62-7.03z"/><path fill="#8d8d8d" d="M103.04 291.11c2.59 1.33 6.3 2.56 6.42 6.05-.2 3.06-1.84 6.16-4.57 7.69-4.85 2.78-10.25 4.37-15.34 6.63-4.03 1.79-7.1 5.46-11.54 6.37-5.34 1.12-10.8 1.62-16.03 3.24l-5.05-.44c-8.68.85-17.1 3.52-25.75 4.57-4.78.09-9.47-1.14-14.22-1.52-4.76-.4-9.72-2.03-12.91-5.75-.89-2.72-.9-5.63-1.38-8.42 9.06 4.92 19.15 7.93 29.39 8.98 12.86.68 25.87-.96 38.05-5.22 9-2.68 17.62-6.53 25.44-11.74 3.04-3.05 7.3-5.66 7.49-10.44z"/><path fill="#fefefe" d="M400.34 290.81c.94-1.13 3.34.19 2.42 1.57-.96 1.02-3.31-.2-2.42-1.57z"/><path fill="#8d8d8d" d="M667.53 302.45c4.54 7.18 4.59 16.19 3.13 24.3-9.33.16-18.66-.16-27.98-.14 0-8.595.15-14.093-8.45-16.02-.13-4.54-.89-9.1-.32-13.63 5.892-11.23 29.827-.162 33.62 5.49z"/><path fill="#b8b8b8" d="M773.11 301c1.88-4.78 6.57-8.64 11.9-8.26 17.253 4.853 6.542 16.133 8.4 18.72 2.48 4.68 1.93 10.16 2.07 15.26l-3.31.08c-.02-4.43-.05-8.9-.92-13.25-2.717-7.202-12.295-10.014-18.14-12.55z"/><path fill="#fefefe" d="M316.88 311.85c8.11-5.28 16.65-10.08 23.76-16.74-.37 1.63-1.07 3.15-2.57 4.04-7.95 6.03-15.97 12.05-24.53 17.21-.47-2.39 1.77-3.38 3.34-4.51z"/><path fill="#b8b8b8" d="M592.97 295c10.57 3.52 2.165 15.57 3.62 17.54 2.59 4.26 2.51 9.39 2.65 14.2l-3.38.03c-.293-17.333-5.226-17.07-19.12-23.76 3.127-5.955 10.795-9.927 16.23-8.01z"/><path fill="#030303" d="M81.57 305.16c-.17-3.22-.12-6.49.71-9.61.6 3.2.55 6.56-.71 9.61zm40.77-6.99c6.06 2.48 13.52 2.26 18.69-2.08 3.15-.41 4.05 3.48 4.59 5.85.73 2.45-.99 4.39-2.62 5.94 1.56-.17 3.13-.3 4.69-.37-4.51 7.505-17.868 6.31-24.44 4.03-2.03 1.1-4.29 1.52-6.57 1.64 1.36-1.37 3.2-1.83 5.07-2-1.32-4.21-1.3-8.98.59-13.01z"/><path fill="#b8b8b8" d="M231.01 296.44c8.67 3.2 17.27 6.65 25.98 9.8-2.11.59-4.14-.51-6.11-1.12-5.39-1.8-10.41-4.51-15.75-6.43-1.5-.52-2.9-1.25-4.12-2.25z"/><path fill="#030303" d="M273.56 302.62c2.05-3.15 5.28-5.24 8.62-6.8-2.64 2.54-5.56 4.79-8.62 6.8zm87.41-5.7c-6.13 5.924-12.208 12.42-18.78 16.81 3.818-6.046 13.22-14.234 18.78-16.81zm51.41 3.6c-2.37-1.68.97-3.64 2.66-3.85 1.07 2.07.11 5.01-2.66 3.85z"/><path fill="#fefefe" d="M123.14 301.09c5.99 2.41 12.67.53 17.95-2.74 2.15.72 2.23 3.87 2.75 5.81-4.93 6.18-13.75 6.38-20.66 3.92z"/><path fill="#030303" d="M335.98 308.18c2.75-3.92 6.33-7.16 9.95-10.26-3.31 3.43-6.61 6.86-9.95 10.26zm.97 2.95c4.46-5.16 9.73-9.75 15.56-13.3-4.755 4.407-9.97 11.483-15.56 13.3zm-62.19-6.22c1.92-3.03 5.38-4.46 8.53-5.85-2.26 2.69-5.27 4.6-8.53 5.85z"/><path fill="#fefefe" d="M183.61 303.38c-.7-1.16.19-2.33.52-3.43 2.26 4.1 7.25 2.62 10.13.12-1.04 4.33-7.36 6.4-10.65 3.31zm37.75-2.11c.09 1.23.96 2.8-.35 3.69-2.8 2.13-6.49 1.8-9.69.95-.3-1.18-.58-2.36-.86-3.53 4.37 3.13 7.672 3.007 10.9-1.11z"/><path fill="#030303" d="M354.58 310.26c2.02-4.13 6.17-6.52 9.78-9.1-2.09 4.07-6.12 6.6-9.78 9.1z"/><path fill="#8d8d8d" d="M757.32 301.49c8.783-1.274 27.114 7.106 30.96 13.31 1.12 3.89.92 8.01 1.11 12.02l-27.29-.04c-1.7-2.35-4.13-3.9-6.97-4.48.9-6.81-2.46-14.96 2.19-20.81z"/><path fill="#030303" d="M393.94 304.38c1.31-2.77 4.98-2.2 6.35.23-2.13.09-4.25.01-6.35-.23z"/><path fill="#fefefe" d="M180.19 304.19c.455-1.39 2.69-.6 2.24.76-.45 1.36-2.695.63-2.24-.76z"/><path fill="#8d8d8d" d="M589.79 314.18c3.86 2.97 2.71 8.37 3.23 12.6l-33.96-.75c-3.423-27.15 5.513-27.014 30.73-11.85z"/><path fill="#fff" d="M223.37 304.44c1.214-1.186 2.916.488 1.7 1.67s-2.914-.484-1.7-1.67z"/><path fill="#030303" d="M403.18 304.31c2.72-.7 1.44 3.04-.62 2.43-1.82-.15-.66-2.46.62-2.43z"/><path fill="#fefefe" d="M178.16 306.32c3.43.69 5.28 4.5 8.85 4.79 3.47-.04 5.8-2.91 8.48-4.69-.78 4.31-5.27 6.82-9.31 7.25-3.44.29-7.02.5-10.36-.49-4.84-1.9-4.014-7.993 2.34-6.86z"/><path fill="#030303" d="M358.09 310.68c1.63-1.89 3.56-3.53 5.75-4.75-1.37 2.17-3.28 3.95-5.75 4.75z"/><path fill="#b8b8b8" d="M505.02 312.02c1.79-7.5 12.6-8.4 17.55-3.53 2.9 2.25 2.95 6.16 2.95 9.51-2.3 2.85-4.93 5.68-5.34 9.51-3.445-9.528-6.3-11.35-15.16-15.49z"/><path fill="#8d8d8d" d="M147.93 307.28c.27 2.08 1.11 4.49-.49 6.27-2.83 3.96-8.31 2.74-12.48 3.18-3.91-.06-7.55 2.36-11.46 1.67-2.14-.37-2.95-2.45-3.68-4.21-1.05-.35-2.09-.68-3.14-1.01 2.28-.12 4.54-.54 6.57-1.64 8.405 1.775 18.602 1.418 24.44-4.03z"/><path fill="#fefefe" d="M224.51 307.64c2.12-1.03 4.59-.68 6.87-.86.66 1.38 1.26 2.78 1.83 4.21-5.26 4.62-12.75 5.37-19.19 3.02 4.73.62 7.14-3.98 10.49-6.37zm58.28-.04c9.258 3.01 19.175 4.265 27.72 7.08.31.42.94 1.25 1.25 1.67-9.922-1.093-19.806-3.34-28.25-7.04l-.72-1.71z"/><path fill="#b8b8b8" d="M698.35 313.81c.44-4.81 5.63-6.71 9.75-7.23 4.76-.7 10.21 1.81 11.42 6.76 1.01 2.14-.62 4.05-1.58 5.83-6.37-2.29-12.79-4.71-19.59-5.36z"/><path fill="#030303" d="M416.4 308.4c1-1 3.1-.49 3.47.9-.23 2.1-4.49 1.07-3.47-.9z"/><path d="M199.26 311.13c1.64.03.62 2.46-.54 2.51-1.64-.04-.63-2.48.54-2.51z"/><path fill="#b8b8b8" d="M834.11 312.99c3.43 3.83 2.88 9.36 2.44 14.09-5.67-2.77-11.57-5.15-17.84-6.12 1.757-7.94 9.645-12.78 15.4-7.97z"/><path d="M425.02 312.06c2.99-1.53.14 3.32 0 0z"/><path fill="#b8b8b8" d="M637.85 315.13c2.81 3.18 2.8 7.66 2.8 11.65-6.42.81-11.6-1.99-17.82-2.69 1.376-8.483 4.667-12.986 15.02-8.96z"/><path d="M201.03 313.99c1.55-.91 2.17 1.51.61 1.88-1.57.96-2.21-1.54-.61-1.88z"/><path fill="#030303" d="M233.72 318.38c1.54-2.21 3.9-3.54 6.39-4.4-1.68 2.04-3.88 3.58-6.39 4.4z"/><path fill="#8d8d8d" d="M515.86 326.8c-9.97-.04-19.94.03-29.9-.04-.615-17.336 27.98-9.102 29.9.04z"/><path fill="#030303" d="M90.31 316.36c1.64-.5 3.61-.41 5.17.33-1.003 7.428-10.878 2.382-5.17-.33z"/><path fill="#b8b8b8" d="M91.05 317.31c3.42.05-1.48 2.93 0 0z"/><path fill="#8d8d8d" d="M686.55 318.51c5.12-3.02 11.43-2.02 16.93-.73 4.43 1.34 8.94 2.61 13.12 4.66 1.66.78 1.52 2.9 2.16 4.38-10.84-.14-21.68.15-32.51-.17.39-2.69.56-5.42.3-8.14z"/><path fill="#030303" d="M58.76 321.52c-.05-1.79 2.59-1.82 3.22-.43l-1.16 1.2c-.52-.19-1.55-.58-2.06-.77z"/><path fill="#8d8d8d" d="M804.95 326.67c6.48-5.13 15.23-2.34 22.27-.04-7.42.3-14.86.22-22.27.04z"/><path fill="#030303" d="M20.34 334.46c3.55-.62 7.69-.78 10.67 1.62 3.57 3.64.68 11.77-4.9 10.88-4.36.4-9.88-3.15-8.77-8.03.14-1.89 1.64-3.32 3-4.47zm38.2 1.06c2.07-.85 4.44-1.42 6.22.4-1.51.82-3.31.79-4.93 1.26 1.04 2.17 4.94 1.92 4.77 4.82.32 2.16-1.81 2.91-3.33 3.74-1.65-.93-2.614-1.468-2.88-3.29 1.14.09 3.41.28 4.55.37-2.997-4.653-6.65-1.182-4.4-7.3z"/><path d="M95.53 336.92c-.21-1.62 1.55-2.33 2.41-3.39 1.56 1.27 5.02 1.83 4.52 4.45.05 2.16-2.67 2.31-4.08 3.03.09 1.84-.23 3.64-1.4 5.11-1.42-2.84-1.55-6.09-1.45-9.2z"/><path fill="#030303" d="M140.54 334.4c11.056-.457 7.9 12.106 1.05 10.12-.22-3.39.37-6.93-1.05-10.12zm-98.04.86c.53.04 1.59.14 2.12.18-.21 3.35.45 7.51-2.52 9.89-2.545.533-3.655-1.696-4.57-3.46.49-.5 1-.98 1.46-1.49.83 1.19 1.76 2.34 3.12 2.96.32-2.69.37-5.39.39-8.08zm8.44-.21c3.08 2.09 4.22 6.01 4.89 9.5-.49-.05-1.49-.14-1.98-.18-.15-.71-.43-2.13-.58-2.84-1.43.03-2.86.07-4.28.13l-.66 3.53c-.5.02-1.52.05-2.02.07.34-3.534 2.29-9.85 4.63-10.21zm15.6 5c1.31-7.502 8.855-5.402 10.69-2.11 1.18 3.17-1.77 7.45-5.29 6.78-2.87.25-4.57-2.3-5.4-4.67zm12.85-4.59l1.68.01 4.44 5.02.24-5.02 2.04-.36-.46 10.09-5.85-5.57-.21 4.84-1.99.27zm28.65-.27c3.29-.355 3.83 4.15 6.39 4.11.03-.82.08-2.46.11-3.28.47.06 1.4.18 1.87.25.03 2.01.05 4.03.06 6.06 1.48.1 2.96.23 4.43.39-.97 2.7-3.88 1.67-6.02 1.89-.17-1.22-.5-2.38-1-3.48-2.49-.39-3.2 4.28-5.93 3.21-7.096-1.685-3.31-9.227.09-9.15zm15.66-.02c.73.12 1.47.25 2.21.39 1.3 3.02 3.15 5.74 4.82 8.55-.49.16-1.47.47-1.96.62-.56-1.08-1.13-2.15-1.69-3.22-.82.04-2.45.11-3.27.15l-.44 2.94c-.46-.06-1.37-.19-1.83-.25.44-3.12 1.11-6.21 2.16-9.18zm7.97.43c.42-.07 1.27-.23 1.7-.3.84 1.42 1.69 2.84 2.51 4.28 2.995-.252 1.026-3.536 3.63-4.18-.605 3.692-.12 7.7-2.52 10.15-.74-2.05-1.65-4.04-3.14-5.65-.1 1.72-.22 3.46-.36 5.19-3.25-1.76-1.27-6.43-1.82-9.49zm617.06-.54c3.59-.14 8.99 1.37 8.01 6.04-.82.22-2.46.68-3.28.91 1.82 1.72 3.87 3.39 4.45 5.98-2.93-1.15-5.12-3.46-7.46-5.46.02.98.25 4.53.27 5.51l-1.91-.04z"/><path fill="#fefefe" d="M19.74 337.79c2.39-3.94 7.45-1.81 10.53.06.05 1.51.12 3.03.18 4.56-2.8 5.3-13.95 1.53-10.71-4.62z"/><path fill="#dadada" d="M97.89 336.34c2.76 1.03 2.703.933.24 1.97l-.24-1.97z"/><path fill="#030303" d="M789.27 335.08l1.99 1.77 1.22 11.15h-2.59zm5.34 1.49c2.99.02 6.71-1.15 8.73 1.85-2.28.19-4.54.22-6.81.26l.12 2.39c1.46.2 2.93.41 4.41.65-1.21 1.478-3.34 1.22-4.89 1.44l-.12 3.32c2.19-.32 4.7-.98 5.97 1.52h-7.61zm12.99-.07l1.86-.06c2.38 3.61 4.93 7.25 5.87 11.56h-1.76c-.92-1.75-1.37-4.13-3.71-4.44l-.83-4.11.19 5.29c-.32 1.08-.61 2.16-.87 3.26h-1.86c-.13-3.87.12-7.75 1.11-11.5zm19.01-.1c2.4.11 5.5-.36 6.92 2.13 2.15 2.99.35 6.74-1.36 9.47h-5.44zm11.85 11.6l.24-12.44c7.2 1.006 10.375.033 4.74 6.3 1.73 1.96.9 4.23-.36 6.14zm20.95-11.88c2.51-.06 5.03.08 7.55.25 2.18.02 4.61-1.11 6.6.27 1.9.96.72 3.35.75 4.94.61.35 1.82 1.06 2.43 1.42-1.12 2.15-2.68 4.12-5.02 5h-2.38c-.79-3.29-.81-6.68-1-10.03-.27.07-.8.2-1.07.26-.81.99-1.58 2.02-2.34 3.03.5.51 1.52 1.52 2.03 2.02-1.08 1.69-2.28 3.31-3.71 4.72h-2.79c-1.27-3.84-.91-7.91-1.05-11.88zm16.6-1.08c2.09 1.23 3.58 3.17 5.34 4.79 1.79-1.65 3.32-3.84 5.97-4.07-1.51 2.57-3.72 4.64-5.22 7.21l-.33 5.03h-2.1l-.11-5.84c-1.1-2.41-2.83-4.52-3.55-7.12zm20.72.34c2.35.84 5.17 1.66 5.56 4.59-1.86-.68-3.68-1.48-5.49-2.24-2.13 9.432 1.203 6.692 6.48 4.19-.76 1.69-1.73 3.28-2.78 4.82-1.4-.41-2.81-.71-4.23-.9-4.532-3.1-2.704-7.447.46-10.46zm21.25.35l4.09 4.09.64-3.4 2.44-.41 1.84 4.81c.5 2.14.81 4.32 1.08 6.51-2.087-2.172-3.012-5.28-4.06-7.68l-1.74 4.5-3.3-3.8c-.58 2.39.63 5.99-2.47 7.06-.22-3.97.67-7.84 1.48-11.68zm-896.81 3.34c3.004-3.886 4.556-2.363 6.82.49-1.97.08-4.9-1.45-5.12 1.63.97.07 2.91.22 3.87.29l-.2 1.92c-3.76.72-6.93-2.292-5.37-4.33z"/><path fill="#fefefe" d="M74.05 342.18c-1.44 1.14-3.22-.06-4.74-.37-.615-6.446 8.24-4.174 4.74.37zm34.95-4.82c1.75.72 1.56 2.68 1.67 4.25-7.772 1.11-4.534-4.673-1.67-4.25zm34.54-.18c3.937.415 1.608 4.545.26 5.81-.13-1.93-.19-3.87-.26-5.81zm606.52-.09c5.937 1.105 5.968 1.848.76 3.66-.39-.84-.37-2.82-.76-3.66z"/><path fill="#030303" d="M758.31 342.63c.02-8.24 9.636-6.688 9.815-.075.18 6.614-9.836 8.317-9.815.075zm11.24-6.04l7.79 1.29c.32 1.56-.51 2.9-1.2 4.22 1.5 1.79.83 3.9.2 5.9h-5.97c-1.06-3.71-.93-7.6-.82-11.41zm9.85.01c2.78-.16 5.57.21 8 1.66-1.36 2.19-.34 4.37.22 6.57-.68 1.15-1.6 2.14-2.43 3.17h-5.65zm37.04.86l1.77-.13 3.81 5c.33-2.33.65-4.75 2.22-6.63l.1 12.3h-1.44l-3.58-6.31-.17 6.31h-1.75z"/><path fill="#fefefe" d="M840.69 337.72c5.067-.515 2.703 1.623.01 3.16-.02-1.06-.02-2.11-.01-3.16z"/><path fill="#030303" d="M847.55 341.92c.85-2.22 2.6-5.19 5.43-4.62 2.11-.07 4.44 1.33 4.59 3.62.54 2.64-1.28 4.86-2.4 7.08h-4.25c-1.54-1.71-3.8-3.5-3.37-6.08zm59.44-5.11c5.975-1.852 10.195 2.854 7.24 7.29-1.64 1.673-4.83 3.9-5.95 3.9-3.734-3.59-6.892-8.57-1.29-11.19z"/><path fill="#fff" d="M49.94 337.96c1.158-1.242 2.912.37 1.75 1.61-1.162 1.24-2.908-.368-1.75-1.61zm731.57.52c4.507 1.47 3.327 1.275-.09 2.57.03-.64.07-1.93.09-2.57z"/><path fill="#fefefe" d="M828.66 338.31c4.526 1.043 3.55 3.726 2.73 7.19l-2.43.32zm33.32 1.95c-1.86-.98.19-3.54 1.79-2.59 1.89.9-.33 3.32-1.79 2.59zm5.29-2.03c.27-.06.8-.19 1.07-.26.19 3.35.21 6.74 1 10.03h-6.09c1.43-1.41 2.63-3.03 3.71-4.72-.51-.5-1.53-1.51-2.03-2.02.76-1.01 1.53-2.04 2.34-3.03zm3.13-.11c.94-1.67 3.3.23 2.31 1.67-.96 1.69-3.26-.27-2.31-1.67zm36.12 1.65c6.87-2.26 9.758 1.68 3.53 4.74-3.683.016-3.844-1.94-3.53-4.74zm-146.435 2.8c.093-3.1 5.51-5.135 5.49.02-.02 5.156-5.583 3.08-5.49-.02z"/><path fill="#fff" d="M771.39 341.74c-.78-2.52 1.57-3.84 3.61-2.28-.72 1.34-2.5 1.49-3.61 2.28z"/><path fill="#fefefe" d="M809.03 339.45c.35 1.35.59 2.72.83 4.11 2.34.31 2.79 2.69 3.71 4.44h-5.22c.26-1.1.55-2.18.87-3.26-.05-1.77-.18-3.53-.19-5.29zm40.49 3.77c-.34-2.98 4.22-5.29 5.99-2.41.725 5.587-4.307 5.69-5.99 2.41z"/><path fill="#fff" d="M781.41 342.68c4.526-.54 3.157 2.59.25 4.14-.11-1.39-.19-2.76-.25-4.14z"/><path fill="#fefefe" d="M819.32 341.69c1.38 1.99 2.48 4.15 3.58 6.31h-3.75c.02-2.11.05-4.21.17-6.31zm42.09.91c3.603-.79 2.25 2.304.37 3.26-.14-1.09-.26-2.18-.37-3.26zm8.94.13c3.842-.717 3.264 1.676 1.24 2.96zm-98.92.55c3.922.947 4.492 3.054.42 3.1-.15-1.04-.29-2.07-.42-3.1zm68.96.2c3.083-.356 1.82 2.23.07 2.25-.02-.57-.05-1.69-.07-2.25z"/><path fill="#030303" d="M891.17 345.06c-.25.97-.49 1.95-.7 2.94h-1.58c.234-3.04-.42-5.94 2.28-2.94z"/><path fill="#fff" d="M186.146 239.59c2.468.442 2.468.354 2.468.354l-2.115 18.95-1.94-.353zM192.4 221l-1.5 3.3 8 2.5 1.3-3.1zm9 3.4l-.8 2.2 9.7.7.2-2.1z"/><path fill="#fff" fill-rule="evenodd" d="M748.853 90.483c-.767-1.014-.832-2.04-.832-3.153h1.97v-.84c-2.23.37-4.46 1.043-6.35 1.473.87-1.008 1.72-1.794 2.71-2.597.02-.043-.06-.08-.17-.08-.32-.267-.19-.478-.19-.983h.987c.483-1.284 1.44-1.676 2.267-2.95.15.29.28.573.41.876.444.04.787.01 1.25-.01-.91-1.18-1.23-2.52-1.24-3.83 1.17-.32 2.15-.45 3.29-.54.87-1.14 1.65-.52 2.047.32 1.195.05 2.45-.04 3.48.09-.41.86.048.96.167 1.14.45-.16.88-.21 1.35-.26.27-1.31.983-1.05.983.07 1.135.21 1.863.01 3.03.01v2.04h.982V80.2c.95-.07 1.85.108 2.647.285-.46 2.76-.98 5.44-1.478 7.834-.28-.58-.4-1.068-.61-1.72-2.684-1.417-2.09-1.07-4.01-2.27-1-2.81-3.923-4.24-6.32-4.91-.81 1.8-1.57 3.873-2.5 5.66-1.73-2.39-1.73-3.51-1.73-.12l.76 1.26-.746.133c.01.985-.032 2.15-.223 2.992-.44.832-1.29 1.33-1.904 1.125z"/></svg>